<svg width="1402" height="1145" viewBox="0 0 1402 1145" fill="none" xmlns="http://www.w3.org/2000/svg">
<path d="M1247.88 1086.67C997.575 1257.9 823.055 1139.51 662.052 917.452C501.048 695.393 460.161 626.82 710.463 455.588C960.765 284.355 1186.94 -300.937 1347.95 -78.8782C1508.95 143.181 1498.18 915.433 1247.88 1086.67Z" fill="white" fill-opacity="0.43"/>
<path d="M1124.41 826.321C1105.98 827.441 1095.8 805.22 1109.74 792.27L1111.12 786.918C1110.94 786.49 1110.76 786.061 1110.57 785.633C1091.94 742.506 1028.78 742.803 1010.3 785.995C993.896 824.33 973.015 862.73 967.874 903.264C965.569 921.156 966.606 939.384 970.697 956.941C932.268 875.473 912.045 786.513 912.045 697.049C912.045 674.571 913.312 652.093 915.905 629.671C918.037 611.331 920.975 593.103 924.778 575.042C945.346 477.415 989.883 384.428 1054.12 306.762C1085.01 290.379 1110.76 264.77 1126.32 234.073C1131.9 223.001 1136.28 211.091 1138.36 198.958C1134.84 199.405 1125.11 147.46 1127.76 144.273C1122.86 137.06 1114.09 133.475 1108.74 126.436C1082.14 91.4323 1045.49 97.5441 1026.35 145.112C985.478 165.133 985.082 198.336 1010.16 230.27C1026.12 250.587 1028.31 278.078 1042.31 299.828C1040.87 301.618 1039.37 303.351 1037.93 305.141C1011.52 338.019 988.675 373.359 969.416 410.485C974.859 369.224 966.823 319.515 953.124 287.472C937.53 250.962 908.3 220.214 882.561 188.651C851.643 150.74 788.243 167.285 782.796 215.344C782.743 215.809 782.692 216.274 782.641 216.739C786.465 218.832 790.21 221.056 793.869 223.404C814.738 236.799 807.525 268.195 782.798 271.899L782.238 271.983C783.621 285.347 785.983 298.599 789.44 311.627C756.419 435.56 827.709 480.699 929.502 482.727C931.749 483.845 933.939 484.963 936.186 486.026C925.872 514.207 917.633 543.115 911.526 572.414C906.053 598.303 902.25 624.471 900.119 650.751C897.468 683.908 897.699 717.234 900.58 750.336L900.407 749.161C893.09 712.705 872.694 678.653 843.079 655.057C798.963 619.886 736.635 606.934 689.041 578.664C666.131 565.056 636.773 582.642 640.772 608.419C640.835 608.831 640.9 609.242 640.966 609.654C648.053 612.449 654.966 615.693 661.65 619.327C665.473 621.42 669.219 623.644 672.877 625.992C693.746 639.387 686.534 670.783 661.806 674.487L661.246 674.571C660.843 674.627 660.497 674.683 660.094 674.739C672.251 702.752 689.19 728.753 710.392 751.174C731.039 859.363 819.72 869.628 914.58 838.122H914.638C925.008 881.96 940.161 924.791 959.635 965.608H1120.38C1120.96 963.875 1121.48 962.086 1121.99 960.352C1107.13 961.247 1092.15 960.408 1077.52 957.781C1089.44 943.578 1101.37 929.264 1113.29 915.061C1113.58 914.782 1113.81 914.502 1114.04 914.222C1120.09 906.954 1126.2 899.741 1132.25 892.472L1132.25 892.463C1132.63 870.149 1129.88 847.908 1124.41 826.324L1124.41 826.321L1124.41 826.321Z" fill="#3A5153"/>
<path d="M821.739 1046.62C885.602 1045.03 937.158 1035.58 936.893 1025.51C936.627 1015.44 884.64 1008.57 820.776 1010.16C756.913 1011.75 705.357 1021.2 705.623 1031.27C705.889 1041.34 757.875 1048.21 821.739 1046.62Z" fill="white"/>
<path d="M527.843 941.142C591.706 939.552 643.262 930.102 642.997 920.035C642.731 909.969 591.982 903.097 528.119 904.688C464.256 906.278 412.699 915.729 412.965 925.795C413.231 935.862 463.979 942.733 527.843 941.142Z" fill="white"/>
<path d="M282.259 869.967C282.364 860.914 259.443 853.322 231.063 853.01C202.683 852.698 179.591 859.784 179.485 868.836C179.38 877.889 202.301 885.481 230.681 885.793C259.061 886.105 282.153 879.019 282.259 869.967Z" fill="white"/>
<path d="M102.964 773.772C103.07 764.719 80.1491 757.127 51.769 756.815C23.389 756.503 0.296556 763.589 0.191045 772.642C0.0855352 781.695 23.0069 789.287 51.3869 789.599C79.767 789.911 102.859 782.825 102.964 773.772Z" fill="white"/>
<path d="M1111.26 1050.51C1111.36 1041.46 1088.44 1033.87 1060.06 1033.55C1031.68 1033.24 1008.59 1040.33 1008.49 1049.38C1008.38 1058.43 1031.3 1066.02 1059.68 1066.34C1088.06 1066.65 1111.15 1059.56 1111.26 1050.51Z" fill="white"/>
<path d="M745.766 965.745C745.872 956.693 722.951 949.101 694.571 948.789C666.19 948.477 643.098 955.562 642.993 964.615C642.887 973.668 665.808 981.26 694.188 981.572C722.569 981.884 745.661 974.798 745.766 965.745Z" fill="white"/>
<path d="M1296.52 1010.79C1296.62 1001.74 1273.7 994.149 1245.32 993.836C1216.94 993.524 1193.85 1000.61 1193.74 1009.66C1193.64 1018.72 1216.56 1026.31 1244.94 1026.62C1273.32 1026.93 1296.41 1019.85 1296.52 1010.79Z" fill="white"/>
<path d="M721.435 690.612C725.595 687.864 726.714 682.305 723.934 678.194C723.654 677.78 723.339 677.405 723.006 677.053L724.856 595.736L708.598 598.236L709.745 677.108C706.973 680.078 706.498 684.634 708.87 688.142C711.65 692.253 717.275 693.359 721.435 690.612Z" fill="#FFB6B6"/>
<path d="M722.144 553.586C722.144 553.586 721.065 554.392 726.596 562.72C730.473 568.559 729.933 609.833 730.737 609.296C731.542 608.759 729.543 611.536 730.543 612C731.542 612.463 729.689 614.764 730.167 615.956C730.749 617.408 730.026 619.011 729.569 620.469C728.249 624.68 727.965 628.296 726.817 630.296C729.554 631.848 730.997 635.079 730.115 638.224L707.201 634.129C704.407 629.706 704.811 625.064 706.715 624.255L706.148 609.862L699.622 562.563L718.748 554.123L722.144 553.586V553.586Z" fill="#E6E6E6"/>
<path d="M684.318 946.073L694.124 945.991L698.465 907.737L683.992 907.858L684.318 946.073Z" fill="#FFB6B6"/>
<path d="M679.857 966.123L687.219 966.06L687.283 965.68L688.467 959.185L691.711 965.68L691.881 966.018L711.374 965.86C711.801 965.86 712.207 965.796 712.591 965.68C714.415 965.143 715.749 963.456 715.728 961.484C715.717 960.071 714.991 958.742 713.807 957.941L698.144 947.438L698.08 940.511L694.72 940.732L684.274 941.439L681.714 941.607L679.889 965.68L679.857 966.123V966.123Z" fill="#2F2E41"/>
<path d="M548.473 896.699L555.262 903.694L586.399 880.568L576.38 870.245L548.473 896.699Z" fill="#FFB6B6"/>
<path d="M530.662 907.247L535.752 912.497L541.673 908.683L538.979 915.829L551.875 929.116L552.477 929.737C552.788 930.053 553.13 930.314 553.502 930.519C554.09 930.842 554.736 931.017 555.389 931.05C556.556 931.125 557.758 930.724 558.676 929.854C559.719 928.87 560.203 927.447 559.97 926.04L556.949 907.579L562.013 902.774L559.55 900.513L559.54 900.508L551.855 893.492L549.97 891.766L530.662 907.247Z" fill="#2F2E41"/>
<path d="M704.043 624.412L722.757 678.161L723.375 682.462C728.091 686.887 722.167 688.345 724.388 689.512C726.609 690.679 722.076 694.215 725.11 694.534C731.58 695.214 718.259 906.541 699.737 912.901C695.112 914.49 685.409 916.987 680.319 916.206C672.586 915.02 670.907 884.461 679.282 855.426C680.197 852.254 675.614 848.652 678.607 845.453C681.6 842.254 678.238 840.148 678.05 837.493C677.216 825.722 684.469 823.334 684.067 808.785C683.174 776.473 675.321 732.232 675.321 732.232C675.321 732.232 661.732 837.457 656.581 832.245C651.429 827.032 649.159 835.594 647.585 839.429C646.27 842.633 646.885 845.224 638.636 845.32C630.387 845.417 586.083 887.881 584.118 887.807C580.224 887.66 566.11 883.213 565.378 876.695C564.128 865.582 580.37 843.357 610.644 816.744C613.32 814.392 616.757 813.252 613.436 806.664C610.115 800.076 626.638 757.449 625.221 755.477C621.457 750.244 620.024 747.97 623.735 747.627C627.447 747.284 628.544 749.297 628.744 744.221C628.945 739.144 629.585 726.627 629.585 726.627C630.473 669.104 632.455 665.398 651.101 649.771L652.707 633.521L704.043 624.412V624.412Z" fill="#2F2E41"/>
<path d="M718.064 622.264C718.616 622.342 720.74 622.756 717.925 623.412C715.118 624.07 717.741 624.934 717.741 624.934C716.823 625.538 715.896 626.161 714.97 626.791C705.281 633.394 726.502 658.826 716.517 665.272C702.465 674.329 662.563 657.802 652.979 651.027C652.472 650.673 651.983 650.284 651.501 649.86V649.851C651.23 649.618 650.959 649.367 650.688 649.1C650.688 649.1 647.213 640.121 648.774 641.109C650.334 642.097 650.315 639.796 649.075 637.86C647.835 635.923 647.316 632.802 649.45 634.362C651.583 635.923 653.755 621.643 655.187 619.947C656.149 618.816 656.481 618.15 656.481 617.779C656.481 616.957 654.845 617.554 654.845 617.554C654.845 617.554 652.659 617.104 654.592 615.834C656.534 614.564 651.436 593.98 651.436 593.98L648.918 576.481C646.154 568.332 643.295 557.841 648.314 552.932L674.022 539.383L700.253 538.519L720.889 549.476C728.889 553.503 726.476 571.927 723.215 580.205C723.215 580.205 718.799 621.443 718.274 620.596C717.741 619.749 717.523 622.185 718.064 622.264V622.264Z" fill="#E6E6E6"/>
<path d="M711.974 503.207C711.725 506.159 711.488 509.111 711.25 512.063C710.967 515.506 710.685 518.984 709.791 522.327C709.553 523.243 709.248 524.183 708.603 524.887C707.539 526.083 709.508 533.082 708.049 533.753C706.442 534.502 704.87 534.905 703.342 535.062C703.274 534.57 703.184 534.078 703.082 533.597C703.071 533.541 703.059 533.496 703.048 533.44C702.584 531.271 701.736 529.169 700.525 527.291C700.819 529.516 700.548 531.797 699.79 533.91C699.665 534.257 699.518 534.603 699.36 534.95C692.945 534.01 687.391 529.728 683.012 529.773C680.354 520.963 678.476 511.917 677.412 502.794C677.129 500.356 676.971 497.651 678.487 495.716C679.833 493.994 682.13 493.368 684.279 492.91C691.294 491.412 698.489 490.73 705.661 490.886L693.228 488.024C696.724 488.002 700.276 487.99 703.614 488.997C706.951 489.992 710.108 492.172 711.397 495.381C712.382 497.829 712.178 500.58 711.974 503.207V503.207Z" fill="#2F2E41"/>
<path d="M684.352 529.993C698.335 529.993 709.671 518.79 709.671 504.971C709.671 491.151 698.335 479.948 684.352 479.948C670.368 479.948 659.033 491.151 659.033 504.971C659.033 518.79 670.368 529.993 684.352 529.993Z" fill="#FFB6B6"/>
<path d="M710.04 544.658C700.491 536.266 716.771 512.299 704.055 496.303L702.528 495.173C701.645 497.268 699.371 498.994 697.233 500.01C696.747 497.814 695.955 495.694 694.869 493.777C695.151 496.189 694.914 498.664 694.224 500.975C693.511 501.064 693.002 500.962 692.821 500.645C693.047 502.587 687.04 503.552 688.296 500.531C688.307 500.493 688.318 500.467 688.33 500.442C686.78 503.527 683.589 504.961 680.818 506.675C678.046 508.376 675.229 511.22 675.5 514.749C675.727 517.605 677.933 519.738 680.15 521.16C682.367 522.594 684.856 523.711 686.463 525.933C689.167 529.665 688.533 535.136 687.164 539.681C686.746 541.09 685.479 542.093 683.816 542.652C683.352 540.189 682.503 537.802 681.293 535.67C681.587 538.196 681.315 540.786 680.557 543.185C677.333 543.248 673.724 542.144 671.575 539.834L673.283 547.323C670.534 546.752 667.762 547.4 664.968 547.895C664.9 547.057 664.775 546.206 664.617 545.368C664.164 542.842 663.305 540.392 662.06 538.209C662.422 541.306 661.936 544.48 660.736 547.311C660.601 547.641 660.454 547.971 660.295 548.288C655.996 547.984 651.708 545.508 652.523 539.072C652.795 536.939 653.858 535.086 655.057 533.41C657.275 530.338 645.973 527.05 646.663 523.343C647.692 517.846 657.999 512.984 657.184 507.437C656.46 502.409 656.602 491.062 659.401 487.15C663.446 481.5 658.959 469.811 687.707 476.449C698.402 478.918 702.109 468.55 718.231 500.211C720.994 505.639 710.945 503.773 716.85 515.409C722.756 527.045 705.842 536.266 710.04 544.658L710.04 544.658Z" fill="#2F2E41"/>
<path d="M660.018 490.126C660.075 490.147 660.125 490.169 660.181 490.19C660.288 490.239 660.402 490.275 660.515 490.31C661.233 490.572 661.987 490.743 662.769 490.822C663.09 490.858 663.424 490.873 663.758 490.874C664.185 490.875 664.612 490.848 665.025 490.793C665.494 490.738 665.957 490.64 666.406 490.515C666.619 490.459 666.833 490.389 667.039 490.312C669.895 489.314 672.135 487.028 673.045 484.161V484.154C673.096 484.021 673.132 483.873 673.168 483.733C673.376 482.96 673.485 482.144 673.487 481.308L673.487 481.294C673.489 480.555 673.405 479.838 673.243 479.141C672.955 477.896 672.424 476.735 671.687 475.727C670.978 474.734 670.159 474.568 670.619 473.433C672.084 469.81 666.089 466.849 662.549 468.441C662.421 468.427 662.293 468.427 662.165 468.426C659.782 468.42 658.898 471.899 657.477 473.857L657.518 473.87C659.166 474.404 659.144 476.759 657.495 477.289C656.549 477.594 655.592 477.863 654.628 478.097C651.443 481.814 655.094 492.689 660.018 490.126L660.018 490.126Z" fill="#2F2E41"/>
<path d="M671.408 474.788C671.758 481.46 667.702 488.102 661.537 490.862C660.295 491.418 659.213 489.598 660.464 489.038C665.998 486.56 669.589 480.787 669.274 474.782C669.203 473.426 671.337 473.435 671.408 474.788Z" fill="#FF7253"/>
<path d="M686.276 611.402C688.095 611.514 689.1 609.281 687.724 607.98L687.587 607.442L687.642 607.313C689.481 602.979 695.714 603.008 697.538 607.349C699.156 611.202 701.217 615.061 701.724 619.134C701.952 620.932 701.849 622.764 701.446 624.529C705.238 616.341 707.234 607.401 707.234 598.41C707.234 596.151 707.109 593.892 706.853 591.639C706.642 589.796 706.352 587.964 705.977 586.149C703.947 576.338 699.552 566.993 693.212 559.188C690.165 557.541 687.623 554.968 686.088 551.883C685.537 550.77 685.104 549.573 684.9 548.354C685.247 548.399 686.208 543.179 685.946 542.858C686.429 542.134 687.294 541.773 687.822 541.066C690.448 537.548 694.065 538.162 695.953 542.943C699.987 544.955 700.026 548.292 697.551 551.501C695.976 553.543 695.76 556.305 694.378 558.491C694.52 558.671 694.668 558.845 694.81 559.025C697.417 562.329 699.671 565.881 701.572 569.612C701.035 565.465 701.828 560.47 703.18 557.249C704.719 553.58 707.603 550.49 710.143 547.318C713.195 543.508 719.451 545.171 719.989 550.001L720.004 550.141C719.627 550.351 719.257 550.575 718.896 550.811C716.837 552.157 717.548 555.312 719.989 555.684L720.044 555.693C719.907 557.036 719.674 558.368 719.333 559.677C722.592 572.132 715.557 576.668 705.511 576.872C705.289 576.984 705.073 577.096 704.851 577.203C705.869 580.035 706.682 582.941 707.285 585.885C707.825 588.487 708.2 591.116 708.411 593.758C708.672 597.09 708.649 600.439 708.365 603.765L708.382 603.647C709.104 599.984 711.117 596.562 714.04 594.19C718.393 590.656 724.544 589.354 729.241 586.513C731.502 585.145 734.399 586.913 734.005 589.503L733.985 589.627C733.286 589.908 732.604 590.234 731.944 590.6C731.567 590.81 731.197 591.033 730.836 591.269C728.777 592.616 729.489 595.771 731.929 596.143L731.984 596.151C732.024 596.157 732.058 596.163 732.098 596.168C730.898 598.983 729.226 601.596 727.134 603.85C725.096 614.722 716.345 615.754 706.984 612.588H706.978C705.954 616.993 704.459 621.298 702.537 625.4H686.674C686.617 625.225 686.566 625.046 686.515 624.871C687.982 624.961 689.46 624.877 690.904 624.613C689.727 623.186 688.55 621.747 687.373 620.32C687.345 620.292 687.322 620.264 687.299 620.235C686.702 619.505 686.1 618.78 685.503 618.05L685.502 618.049C685.465 615.806 685.737 613.571 686.276 611.402L686.276 611.402V611.402Z" fill="#FF7253"/>
<path d="M670.559 570.828C670.559 570.828 651.421 550.729 650.447 560.458C649.814 566.789 643.456 599.782 647.102 611.09C648.918 616.721 655.224 619.604 660.747 617.337L706.582 598.528L700.549 586.31L664.245 601.158L670.559 570.828V570.828Z" fill="#FFB6B6"/>
<path d="M707.284 598.481C712.596 598.481 716.902 594.225 716.902 588.975C716.902 583.725 712.596 579.47 707.284 579.47C701.971 579.47 697.665 583.725 697.665 588.975C697.665 594.225 701.971 598.481 707.284 598.481Z" fill="#FFB6B6"/>
<path d="M661.887 557.799L648.314 552.932C642.382 568.349 637.065 599.897 639.952 599.389C642.838 598.881 641.1 602.62 640.095 603.22C639.09 603.82 641.663 606.891 640.377 607.208C639.09 607.524 640.672 610.254 640.864 611.779C640.864 611.779 647.859 622.148 654.855 622.148C661.85 622.148 668.693 618.113 668.693 618.113L676.281 618.862L673.981 588.975L666.71 596.535L673.304 568.783L661.887 557.799V557.799Z" fill="#E6E6E6"/>
<path d="M1245.5 567.347C1304.68 567.347 1352.65 520.75 1352.65 463.269C1352.65 405.789 1304.68 359.192 1245.5 359.192C1186.33 359.192 1138.36 405.789 1138.36 463.269C1138.36 520.75 1186.33 567.347 1245.5 567.347Z" fill="white"/>
</svg>
