<svg width="28" height="28" viewBox="0 0 28 28" fill="none" xmlns="http://www.w3.org/2000/svg">
<path d="M14 0C10.287 0 6.72601 1.475 4.1005 4.1005C1.475 6.72601 0 10.287 0 14C0 17.713 1.475 21.274 4.1005 23.8995C6.72601 26.525 10.287 28 14 28C17.713 28 21.274 26.525 23.8995 23.8995C26.525 21.274 28 17.713 28 14C28 10.287 26.525 6.72601 23.8995 4.1005C21.274 1.475 17.713 0 14 0ZM20.125 13.125C20.3571 13.125 20.5796 13.2172 20.7437 13.3813C20.9078 13.5454 21 13.7679 21 14C21 14.2321 20.9078 14.4546 20.7437 14.6187C20.5796 14.7828 20.3571 14.875 20.125 14.875H9.98725L13.7445 18.6305C13.8259 18.7119 13.8904 18.8084 13.9344 18.9147C13.9784 19.021 14.0011 19.1349 14.0011 19.25C14.0011 19.3651 13.9784 19.479 13.9344 19.5853C13.8904 19.6916 13.8259 19.7881 13.7445 19.8695C13.6631 19.9509 13.5666 20.0154 13.4603 20.0594C13.354 20.1034 13.2401 20.1261 13.125 20.1261C13.0099 20.1261 12.896 20.1034 12.7897 20.0594C12.6834 20.0154 12.5869 19.9509 12.5055 19.8695L7.2555 14.6195C7.17401 14.5382 7.10936 14.4417 7.06525 14.3354C7.02114 14.2291 6.99844 14.1151 6.99844 14C6.99844 13.8849 7.02114 13.7709 7.06525 13.6646C7.10936 13.5583 7.17401 13.4618 7.2555 13.3805L12.5055 8.1305C12.6698 7.9662 12.8926 7.87389 13.125 7.87389C13.3574 7.87389 13.5802 7.9662 13.7445 8.1305C13.9088 8.2948 14.0011 8.51764 14.0011 8.75C14.0011 8.98236 13.9088 9.2052 13.7445 9.3695L9.98725 13.125H20.125Z" fill="#1BC3D4"/>
</svg>
