<svg width="1920" height="1193" viewBox="0 0 1920 1193" fill="none" xmlns="http://www.w3.org/2000/svg">
<path d="M1920 -102.635H0V1193H1920V-102.635Z" fill=""/>
<path d="M1652.07 -141.947C1788.3 -87.211 1810.29 172.456 1767.18 374.321C1724.07 576.187 1643.76 542.963 1576.5 684.4C1509.24 825.399 1562.44 900.142 1410.5 990.271C1276.94 1069.5 1180.4 957.113 1048.5 844.449C883.402 703.43 755.662 913.452 611 830.222C475 751.976 582.155 594.105 475 583.29C377.497 573.448 362.251 607.208 398 374.321C426 191.916 586.328 510.942 778.609 475.035C970.459 439.129 870.834 197.06 1007.5 38.1069C1143.73 -120.846 1516.26 -196.245 1652.07 -141.947Z" fill="white"/>
<g clip-path="url(#clip0_262_2434)">
<path d="M1396.46 516.942C1303.82 494.577 1246.36 399.795 1268.37 305.657C1290.38 211.518 1383.65 153.126 1476.29 175.491C1503.2 182.018 1528.18 195.005 1549.13 213.365C1570.09 231.725 1586.4 254.922 1596.71 281.011L1594.86 281.769C1584.66 255.981 1568.54 233.052 1547.83 214.905C1527.12 196.757 1502.43 183.92 1475.83 177.469C1384.26 155.363 1292.07 213.079 1270.32 306.127C1248.56 399.174 1305.36 492.859 1396.93 514.965C1422.41 521.207 1448.98 521.36 1474.53 515.41C1500.09 509.461 1523.94 497.571 1544.21 480.676L1545.47 482.252C1524.96 499.345 1500.83 511.374 1474.98 517.393C1449.13 523.412 1422.25 523.258 1396.46 516.942V516.942Z" fill="#66F1FF"/>
<path d="M1708.37 417.392H1569.96C1562.45 417.392 1556.35 408.773 1556.35 398.18V253.676C1556.35 243.082 1562.45 234.463 1569.96 234.463H1738.53C1746.03 234.463 1752.14 243.082 1752.14 253.676V355.594C1752.14 389.67 1732.5 417.392 1708.37 417.392Z" fill="#F2F2F2"/>
<path d="M1457.67 731.476H1468.7L1479.43 647.113H1454.43L1457.67 731.476Z" fill="#D1A0A7"/>
<path d="M1454.07 723.794L1471.7 722.724V730.402L1488.46 742.168C1489.29 742.749 1489.92 743.584 1490.24 744.55C1490.57 745.517 1490.59 746.565 1490.29 747.541C1489.99 748.518 1489.39 749.371 1488.58 749.977C1487.77 750.583 1486.79 750.91 1485.78 750.91H1464.79L1461.17 743.316L1459.76 750.91H1451.84L1454.07 723.794Z" fill="#2F2E41"/>
<path d="M1372.7 422.223L1374.57 439.886L1373.47 463.048L1423.95 456.952L1428.7 422.223L1422.65 422.283L1372.7 422.223Z" fill="#FFB6B6"/>
<path d="M1415.64 365.172L1396.64 349.93L1386.67 349.34L1371.87 358.975L1368.24 377.761L1359.67 398.916L1372.24 456.007C1372.24 456.007 1373.42 460.104 1370.33 460.596C1367.24 461.088 1367.61 467.127 1367.61 467.127C1367.61 467.127 1368.24 472.361 1365.24 472.822C1362.24 473.282 1354.24 473.282 1361.24 482.428C1368.24 491.574 1424.94 456.911 1424.94 456.911L1431.65 414.106C1431.65 414.106 1447.24 392.821 1430.45 380.631L1415.64 365.172Z" fill="#1BC3D4"/>
<path d="M1332.7 494.795C1331.86 493.734 1331.26 492.499 1330.94 491.177C1330.63 489.855 1330.6 488.479 1330.86 487.145C1331.13 485.811 1331.68 484.552 1332.47 483.457C1333.26 482.361 1334.28 481.456 1335.46 480.805L1359.36 399.303L1374.3 406.948L1348.28 485.067C1349.22 487.147 1349.38 489.506 1348.73 491.699C1348.08 493.891 1346.66 495.764 1344.74 496.963C1342.82 498.163 1340.53 498.604 1338.31 498.205C1336.09 497.805 1334.09 496.592 1332.7 494.795H1332.7Z" fill="#D1A0A7"/>
<path d="M1375.3 358.221C1375.3 358.221 1371.03 355.913 1368.1 365.897C1365.77 373.889 1346.78 421.495 1346.54 433.069C1344.98 433.406 1343.57 434.261 1342.54 435.5C1341.51 436.738 1340.91 438.291 1340.85 439.912L1364.31 443.108C1368.42 439.593 1369.49 434.846 1367.9 433.437L1373 419.294L1394.26 374.298L1378.42 359.832L1375.3 358.221Z" fill="#1BC3D4"/>
<path d="M1500.7 468.005C1501 466.68 1501.02 465.304 1500.74 463.973C1500.46 462.642 1499.9 461.389 1499.1 460.302C1498.29 459.215 1497.26 458.321 1496.08 457.682C1494.9 457.043 1493.59 456.676 1492.25 456.605L1437.43 392.979L1425.8 407.08L1482.51 466.081C1482.54 468.371 1483.4 470.569 1484.92 472.26C1486.44 473.95 1488.52 475.015 1490.76 475.252C1493.01 475.489 1495.26 474.883 1497.09 473.547C1498.92 472.211 1500.2 470.24 1500.7 468.005V468.005Z" fill="#D1A0A7"/>
<path d="M1404.17 363.583C1404.17 363.583 1407.04 359.625 1413.92 367.343C1419.43 373.521 1456.8 408.104 1461.95 418.434C1463.5 418.051 1465.13 418.203 1466.59 418.867C1468.05 419.531 1469.24 420.669 1469.99 422.101L1450.19 435.295C1445 433.928 1442.01 430.121 1442.84 428.153L1432.23 417.641L1393.91 386.411L1402.04 366.406L1404.17 363.583Z" fill="#1BC3D4"/>
<path d="M1413.89 350.69C1416.09 347.479 1397.08 339.888 1393.4 341.331C1385.85 344.308 1376.93 350.67 1369.99 351.574C1370.13 348.776 1369.88 345.972 1369.26 343.241C1368.51 346.016 1367.77 348.8 1367.02 351.584C1360.47 350.639 1349.56 339.481 1352.24 313.742C1353.35 303.143 1361 291.873 1386 287.697C1409.08 283.856 1414.71 301.263 1416.87 312.634C1421.79 338.455 1419.36 350.294 1413.89 350.69Z" fill="#2F2E41"/>
<path d="M1392.41 341.369C1403.83 341.369 1413.09 331.96 1413.09 320.353C1413.09 308.747 1403.83 299.338 1392.41 299.338C1380.99 299.338 1371.73 308.747 1371.73 320.353C1371.73 331.96 1380.99 341.369 1392.41 341.369Z" fill="#D1A0A7"/>
<path d="M1420.24 312.854L1410.34 314.393C1405.97 311.612 1404.3 307.486 1404.1 302.636L1405.09 315.207L1400.36 315.942C1397.27 313.847 1395.89 311.578 1396.72 309.084L1397.3 316.417C1384.68 321.038 1372.44 324.446 1362.12 321.881C1361.58 318.343 1361.74 314.733 1362.58 311.257C1363.42 307.781 1364.93 304.507 1367.02 301.623C1369.1 298.739 1371.73 296.3 1374.74 294.447C1377.75 292.593 1381.1 291.361 1384.58 290.82L1389.68 290.028C1393.16 289.488 1396.71 289.649 1400.13 290.504C1403.55 291.358 1406.77 292.889 1409.61 295.008C1412.45 297.128 1414.85 299.795 1416.67 302.857C1418.5 305.919 1419.71 309.316 1420.24 312.854V312.854Z" fill="#2F2E41"/>
<path d="M1688.03 472.012H1501.1C1497.49 472.008 1494.03 470.55 1491.48 467.957C1488.93 465.364 1487.49 461.849 1487.49 458.183V281.649C1487.49 277.982 1488.93 274.467 1491.48 271.874C1494.03 269.282 1497.49 267.824 1501.1 267.819H1688.03C1691.64 267.824 1695.1 269.282 1697.65 271.874C1700.2 274.467 1701.64 277.982 1701.64 281.649V458.183C1701.64 461.849 1700.2 465.364 1697.65 467.957C1695.1 470.55 1691.64 472.008 1688.03 472.012V472.012Z" fill="#E6E6E6"/>
<path d="M1648.69 462.684H1510.28C1506.67 462.68 1503.21 461.222 1500.66 458.629C1498.11 456.036 1496.68 452.521 1496.67 448.855V290.984C1496.68 287.318 1498.11 283.802 1500.66 281.21C1503.21 278.617 1506.67 277.159 1510.28 277.155H1678.85C1682.46 277.159 1685.92 278.617 1688.47 281.21C1691.02 283.802 1692.46 287.318 1692.46 290.984V418.202C1692.45 429.995 1687.83 441.302 1679.63 449.641C1671.42 457.98 1660.29 462.671 1648.69 462.684Z" fill="white"/>
<path d="M1575.13 329.83C1575.13 333.851 1573.96 337.781 1571.76 341.125C1569.57 344.469 1566.44 347.075 1562.79 348.615C1559.13 350.154 1555.11 350.558 1551.23 349.774C1547.35 348.991 1543.78 347.056 1540.98 344.213C1538.19 341.371 1536.28 337.749 1535.51 333.806C1534.73 329.863 1535.13 325.775 1536.64 322.06C1538.16 318.345 1540.72 315.17 1544.01 312.935C1547.3 310.701 1551.16 309.507 1555.12 309.506C1557.75 309.503 1560.35 310.026 1562.78 311.046C1565.21 312.066 1567.42 313.563 1569.27 315.451C1571.13 317.338 1572.61 319.58 1573.61 322.048C1574.62 324.515 1575.13 327.16 1575.13 329.83V329.83Z" fill="#1BC3D4"/>
<path d="M1588.87 366.503H1540.26C1537.46 366.503 1535.19 368.81 1535.19 371.655V374.117C1535.19 376.962 1537.46 379.269 1540.26 379.269H1588.87C1591.67 379.269 1593.94 376.962 1593.94 374.117V371.655C1593.94 368.81 1591.67 366.503 1588.87 366.503Z" fill="#3F3D56"/>
<path d="M1648.7 392.034H1540.43C1537.63 392.034 1535.36 394.34 1535.36 397.186V399.648C1535.36 402.493 1537.63 404.799 1540.43 404.799H1648.7C1651.5 404.799 1653.77 402.493 1653.77 399.648V397.186C1653.77 394.34 1651.5 392.034 1648.7 392.034Z" fill="#3F3D56"/>
<path d="M1648.7 417.565H1540.43C1537.63 417.565 1535.36 419.871 1535.36 422.716V425.178C1535.36 428.023 1537.63 430.33 1540.43 430.33H1648.7C1651.5 430.33 1653.77 428.023 1653.77 425.178V422.716C1653.77 419.871 1651.5 417.565 1648.7 417.565Z" fill="#3F3D56"/>
<path d="M1555.57 332.776C1559.43 332.776 1562.57 329.592 1562.57 325.663C1562.57 321.734 1559.43 318.55 1555.57 318.55C1551.7 318.55 1548.57 321.734 1548.57 325.663C1548.57 329.592 1551.7 332.776 1555.57 332.776Z" fill="white"/>
<path d="M1563.07 335.318H1548.07C1547.14 335.319 1546.25 335.694 1545.6 336.36C1544.94 337.027 1544.57 337.931 1544.57 338.874C1544.78 341.92 1545.25 344.943 1545.97 347.908C1548.98 349.483 1552.33 350.257 1555.71 350.155C1559.1 350.054 1562.4 349.081 1565.31 347.329C1565.95 344.549 1566.37 341.722 1566.57 338.874C1566.57 337.931 1566.2 337.027 1565.54 336.36C1564.89 335.694 1564 335.319 1563.07 335.318V335.318Z" fill="white"/>
<path d="M1669.91 311.511C1667.3 311.511 1664.74 310.723 1662.57 309.247C1660.39 307.771 1658.7 305.673 1657.7 303.219C1656.7 300.765 1656.44 298.064 1656.95 295.458C1657.46 292.853 1658.72 290.46 1660.56 288.581C1662.41 286.703 1664.77 285.423 1667.33 284.905C1669.9 284.387 1672.55 284.653 1674.97 285.669C1677.38 286.686 1679.45 288.408 1680.9 290.617C1682.35 292.825 1683.13 295.422 1683.13 298.079C1683.13 301.641 1681.74 305.058 1679.26 307.577C1676.78 310.096 1673.42 311.511 1669.91 311.511V311.511Z" fill="#E6E6E6"/>
<path d="M1674.52 300.89L1671.75 298.079L1674.52 295.268C1674.77 295.02 1674.9 294.683 1674.9 294.331C1674.9 293.98 1674.77 293.643 1674.52 293.394C1674.28 293.146 1673.94 293.006 1673.6 293.006C1673.25 293.006 1672.92 293.146 1672.68 293.394L1669.91 296.205L1667.14 293.394C1666.9 293.146 1666.57 293.006 1666.22 293.006C1665.88 293.006 1665.55 293.146 1665.3 293.394C1665.06 293.643 1664.92 293.98 1664.92 294.331C1664.92 294.683 1665.06 295.02 1665.3 295.268L1668.07 298.079L1665.3 300.89C1665.06 301.138 1664.92 301.475 1664.92 301.827C1664.92 302.178 1665.06 302.515 1665.3 302.764C1665.55 303.012 1665.88 303.152 1666.22 303.152C1666.57 303.152 1666.9 303.012 1667.14 302.764L1669.91 299.953L1672.68 302.764C1672.8 302.887 1672.94 302.984 1673.1 303.051C1673.26 303.117 1673.43 303.152 1673.6 303.152C1673.77 303.152 1673.94 303.117 1674.1 303.051C1674.26 302.984 1674.4 302.887 1674.52 302.764C1674.64 302.64 1674.74 302.494 1674.8 302.334C1674.87 302.173 1674.9 302.001 1674.9 301.827C1674.9 301.653 1674.87 301.48 1674.8 301.32C1674.74 301.159 1674.64 301.013 1674.52 300.89V300.89Z" fill="white"/>
<path d="M1292.77 704.721L1302.84 709.313L1346.62 636.807L1323.81 626.406L1292.77 704.721Z" fill="#D1A0A7"/>
<path d="M1372.19 463.042L1423.24 456.007C1423.24 456.007 1488.88 610.263 1486.13 689.145L1444.48 694.367C1444.48 694.367 1444.8 662.021 1447.11 659.546C1449.42 657.071 1452.27 660.219 1449.42 653.142C1446.57 646.065 1444.28 644.276 1447.7 640.826C1451.13 637.375 1410.62 577.022 1410.62 577.022C1410.62 577.022 1346.89 658.486 1343.47 660.803C1340.04 663.121 1336.16 663.631 1338.39 669.459C1340.62 675.286 1336.62 686.452 1336.62 686.452C1336.62 686.452 1311.5 682.58 1301.24 657.091C1301.24 657.091 1342.74 580.275 1346.5 579.001C1350.27 577.726 1351.98 584.098 1350.27 577.726C1348.56 571.353 1345.14 573.67 1348.56 571.353C1350.86 569.859 1353.36 568.689 1355.97 567.877L1369.24 532.221C1359.01 508.372 1359.67 485.29 1372.19 463.042Z" fill="#4A4A4A"/>
<path d="M1292.58 696.213L1309.1 702.574L1306.01 709.578L1316.56 727.288C1317.08 728.163 1317.31 729.184 1317.22 730.202C1317.13 731.221 1316.73 732.183 1316.06 732.949C1315.39 733.715 1314.5 734.245 1313.52 734.461C1312.54 734.676 1311.51 734.567 1310.59 734.148L1291.44 725.413L1291.2 716.979L1286.85 723.32L1279.63 720.027L1292.58 696.213Z" fill="#2F2E41"/>
</g>
<mask id="mask0_262_2434" style="mask-type:alpha" maskUnits="userSpaceOnUse" x="380" y="-160" width="1407" height="1177">
<path d="M1651.7 -142.043C1787.93 -87.3073 1809.92 172.36 1766.81 374.225C1723.69 576.091 1643.38 542.866 1576.13 684.304C1508.87 825.303 1562.07 900.046 1410.13 990.175C1276.57 1069.4 1180.03 957.017 1048.13 844.353C883.03 703.334 755.291 913.356 610.629 830.126C474.629 751.88 581.784 594.009 474.629 583.193C377.125 573.352 361.88 607.112 397.629 374.225C425.629 191.82 585.957 510.846 778.238 474.939C970.088 439.032 870.463 196.963 1007.13 38.0106C1143.36 -120.942 1515.89 -196.341 1651.7 -142.043Z" fill="white"/>
</mask>
<g mask="url(#mask0_262_2434)">
<path d="M1305.26 915.931C1300.88 916.135 1296.55 914.967 1292.84 912.583C1289.14 910.198 1286.24 906.714 1284.55 902.602C1282.86 898.49 1282.45 893.949 1283.38 889.594C1284.32 885.239 1286.54 881.281 1289.76 878.256L1291.23 872.334C1291.04 871.86 1290.84 871.386 1290.65 870.913C1286.23 860.319 1278.84 851.286 1269.39 844.95C1259.94 838.613 1248.86 835.256 1237.54 835.299C1226.22 835.341 1215.17 838.782 1205.77 845.19C1196.37 851.598 1189.04 860.686 1184.7 871.313C1167.37 913.728 1145.31 956.215 1139.88 1001.06C1137.49 1020.89 1138.5 1040.98 1142.86 1060.45C1102.16 970.224 1081.03 872.158 1080.9 772.901C1080.89 747.994 1082.25 723.105 1084.97 698.353C1087.23 678.06 1090.35 657.913 1094.35 637.91C1116.16 529.374 1163 427.646 1231.01 341.079C1263.92 322.825 1290.54 294.756 1307.28 260.653C1313.34 248.394 1317.63 235.308 1320 221.801C1316.29 222.296 1306 164.823 1308.8 161.296C1303.63 153.316 1294.36 149.349 1288.71 141.561C1260.6 102.832 1221.88 109.594 1201.67 162.225C1158.48 184.376 1158.06 221.113 1184.56 256.446C1201.42 278.925 1203.74 309.341 1218.53 333.406C1217 335.386 1215.42 337.304 1213.9 339.284C1186.08 375.639 1161.84 414.678 1141.51 455.84C1146.45 409.726 1140.55 363.079 1124.3 319.735C1107.82 279.34 1076.94 245.319 1049.74 210.397C1017.08 168.451 950.096 186.757 944.341 239.931C944.285 240.445 944.231 240.96 944.178 241.475C948.217 243.79 952.171 246.249 956.04 248.85C960.9 252.15 964.666 256.865 966.844 262.377C969.023 267.89 969.512 273.943 968.247 279.743C966.983 285.543 964.024 290.819 959.759 294.881C955.493 298.943 950.12 301.6 944.343 302.505L943.752 302.598C945.191 317.394 947.734 332.057 951.36 346.461C916.473 483.584 991.793 533.526 1099.34 535.77C1101.71 537.007 1104.03 538.245 1106.4 539.421C1085.98 598.237 1073.17 659.503 1068.3 721.677C1065.53 758.357 1065.7 795.205 1068.78 831.859L1068.6 830.56C1060.81 789.801 1039.41 753.025 1008.03 726.44C961.422 687.526 895.57 673.197 845.287 641.918C839.943 638.431 833.729 636.569 827.378 636.553C821.028 636.538 814.805 638.368 809.445 641.829C804.084 645.289 799.809 650.236 797.123 656.084C794.438 661.933 793.454 668.441 794.289 674.839C794.356 675.295 794.424 675.75 794.494 676.205C801.99 679.308 809.288 682.882 816.347 686.907C820.386 689.224 824.34 691.682 828.209 694.282C833.069 697.582 836.835 702.298 839.013 707.81C841.191 713.323 841.68 719.376 840.416 725.176C839.152 730.976 836.193 736.252 831.928 740.314C827.662 744.376 822.289 747.033 816.512 747.938L815.92 748.031C815.494 748.093 815.129 748.155 814.703 748.217C827.511 779.297 845.487 807.905 867.844 832.787C889.659 952.489 983.352 963.846 1083.57 928.988H1083.63C1094.63 977.553 1110.56 1024.82 1131.18 1070.04H1301.01C1301.62 1068.12 1302.16 1066.14 1302.71 1064.23C1286.99 1065.23 1271.21 1064.28 1255.72 1061.38C1268.32 1045.67 1280.92 1029.83 1293.52 1014.12C1293.8 1013.82 1294.07 1013.51 1294.31 1013.19C1300.7 1005.15 1307.16 997.164 1313.55 989.122L1313.55 989.112C1313.89 964.46 1311.11 939.865 1305.27 915.934L1305.26 915.931Z" fill="#F5F2FD"/>
</g>
<defs>
<clipPath id="clip0_262_2434">
<rect width="581.139" height="583.24" fill="white" transform="translate(1171 170.719)"/>
</clipPath>
</defs>
</svg>
