<svg width="884" height="814" viewBox="0 0 884 814" fill="none" xmlns="http://www.w3.org/2000/svg">
<g clip-path="url(#clip0_435_757)">
<path d="M884 755.537V772.121C884 777.835 870.303 782.485 853.471 782.485H-17.9032C-25.8013 782.485 -33.0131 781.462 -38.4356 779.776C-39.0141 779.603 -39.5792 779.415 -40.1174 779.219C-45.2707 777.365 -48.4326 774.866 -48.4326 772.121V755.537C216.835 740.666 543.064 745.7 884 755.537Z" fill="#F2F2F2"/>
<path d="M884 773.807V790.391C884 796.105 870.303 800.754 853.471 800.754H-17.9032C-25.8013 800.754 -33.0131 799.731 -38.4356 798.046C-39.0141 797.872 -39.5792 797.685 -40.1174 797.489C-45.2707 795.634 -48.4326 793.136 -48.4326 790.391V773.807C195.735 762.715 528.004 766.287 884 773.807Z" fill="white"/>
<path d="M884 787.052V803.637C884 809.35 870.303 814 853.471 814H-17.9032C-25.8013 814 -33.0131 812.977 -38.4356 811.292C-39.0141 811.118 -39.5792 810.931 -40.1174 810.734C-45.2707 808.88 -48.4326 806.382 -48.4326 803.637V787.052C215.758 777.739 537.633 779.949 884 787.052Z" fill="#F2F2F2"/>
<path d="M814.464 745.539C815.779 745.621 816.506 743.99 815.511 743.039L815.412 742.646L815.451 742.551C816.782 739.384 821.291 739.406 822.61 742.578C823.781 745.393 825.272 748.213 825.639 751.19C825.803 752.504 825.729 753.842 825.437 755.132C828.181 749.149 829.624 742.616 829.624 736.046C829.624 734.395 829.534 732.744 829.349 731.098C829.196 729.751 828.987 728.412 828.715 727.086C827.247 719.917 824.067 713.088 819.481 707.384C817.277 706.181 815.438 704.301 814.327 702.046C813.928 701.233 813.616 700.359 813.468 699.468C813.719 699.501 814.414 695.686 814.225 695.452C814.574 694.922 815.2 694.659 815.582 694.142C817.481 691.571 820.098 692.02 821.464 695.513C824.382 696.984 824.41 699.422 822.62 701.767C821.48 703.259 821.324 705.278 820.324 706.875C820.427 707.007 820.534 707.134 820.637 707.265C822.523 709.68 824.154 712.275 825.529 715.002C825.14 711.971 825.714 708.321 826.692 705.968C827.805 703.287 829.892 701.029 831.729 698.711C833.936 695.927 838.463 697.142 838.851 700.671L838.862 700.773C838.59 700.927 838.322 701.09 838.061 701.263C836.571 702.247 837.086 704.552 838.851 704.824L838.891 704.83C838.793 705.812 838.624 706.785 838.377 707.742C840.735 716.843 835.645 720.158 828.378 720.307C828.218 720.389 828.061 720.471 827.901 720.549C828.637 722.619 829.225 724.741 829.661 726.893C830.052 728.794 830.324 730.716 830.476 732.646C830.665 735.081 830.649 737.528 830.443 739.959L830.455 739.873C830.977 737.196 832.434 734.695 834.548 732.962C837.697 730.379 842.147 729.428 845.545 727.352C847.18 726.353 849.276 727.644 848.991 729.537L848.977 729.628C848.471 729.833 847.977 730.071 847.5 730.338C847.227 730.492 846.96 730.655 846.699 730.828C845.209 731.811 845.724 734.117 847.489 734.389L847.529 734.395L847.611 734.408C846.743 736.465 845.534 738.374 844.02 740.021C842.546 747.966 836.215 748.72 829.443 746.406H829.439C828.699 749.625 827.617 752.771 826.227 755.768H814.751C814.71 755.641 814.673 755.509 814.636 755.382C815.697 755.448 816.766 755.386 817.811 755.193C816.96 754.15 816.108 753.099 815.257 752.056C815.236 752.035 815.22 752.015 815.204 751.994C814.772 751.461 814.336 750.931 813.904 750.397L813.904 750.397C813.876 748.758 814.073 747.125 814.463 745.54L814.464 745.539V745.539Z" fill="#F2F2F2"/>
<path d="M304.518 733.45C305.834 733.532 306.561 731.901 305.566 730.949L305.467 730.556L305.506 730.462C306.836 727.295 311.346 727.317 312.665 730.489C313.836 733.304 315.326 736.124 315.693 739.101C315.858 740.414 315.784 741.753 315.492 743.042C318.235 737.06 319.679 730.527 319.679 723.957C319.679 722.306 319.588 720.655 319.403 719.009C319.251 717.662 319.041 716.323 318.77 714.997C317.302 707.828 314.122 700.999 309.536 695.295C307.331 694.092 305.493 692.212 304.382 689.957C303.983 689.144 303.671 688.27 303.522 687.379C303.773 687.411 304.468 683.597 304.279 683.363C304.629 682.833 305.255 682.57 305.637 682.053C307.536 679.482 310.152 679.931 311.518 683.424C314.437 684.895 314.465 687.333 312.674 689.678C311.535 691.17 311.379 693.189 310.379 694.786C310.482 694.918 310.589 695.045 310.692 695.176C312.577 697.591 314.208 700.186 315.583 702.912C315.195 699.882 315.768 696.232 316.746 693.879C317.86 691.198 319.946 688.939 321.784 686.622C323.991 683.837 328.517 685.053 328.906 688.582L328.917 688.684C328.644 688.838 328.377 689.001 328.116 689.174C326.626 690.157 327.141 692.463 328.906 692.735L328.946 692.741C328.847 693.723 328.679 694.696 328.432 695.653C330.789 704.754 325.7 708.069 318.433 708.218C318.272 708.3 318.116 708.382 317.956 708.46C318.692 710.529 319.28 712.652 319.716 714.804C320.107 716.705 320.378 718.627 320.53 720.557C320.72 722.992 320.703 725.439 320.497 727.87L320.51 727.784C321.032 725.106 322.488 722.606 324.602 720.873C327.752 718.29 332.202 717.339 335.599 715.263C337.235 714.264 339.331 715.555 339.045 717.448L339.031 717.539C338.526 717.744 338.032 717.982 337.555 718.249C337.282 718.403 337.014 718.566 336.753 718.739C335.263 719.722 335.778 722.028 337.544 722.3L337.584 722.306L337.666 722.318C336.798 724.376 335.589 726.285 334.075 727.932C332.601 735.877 326.27 736.63 319.498 734.317H319.494C318.754 737.536 317.672 740.681 316.281 743.679H304.806C304.765 743.552 304.728 743.42 304.691 743.293C305.752 743.359 306.821 743.297 307.866 743.104C307.015 742.061 306.163 741.01 305.312 739.967C305.291 739.946 305.275 739.926 305.258 739.905C304.826 739.372 304.39 738.842 303.958 738.308L303.958 738.307C303.931 736.669 304.128 735.035 304.518 733.45L304.518 733.45V733.45Z" fill="#F2F2F2"/>
<path d="M693.689 746.776L686.6 746.775L683.228 719.477L693.69 719.478L693.689 746.776Z" fill="#FFB6B6"/>
<path d="M693.939 754.159L672.139 754.158V753.883C672.139 749.205 675.938 745.412 680.624 745.412H680.624L684.606 742.396L692.036 745.412H693.939L693.939 754.159Z" fill="#2F2E41"/>
<path d="M785.601 707.969L781.022 713.372L757.968 698.313L764.726 690.339L785.601 707.969Z" fill="#FFB6B6"/>
<path d="M791.409 712.547L777.329 729.163L777.118 728.985C773.541 725.963 773.094 720.619 776.12 717.047L776.121 717.046L776.386 712.064L783.491 708.349L784.72 706.898L791.409 712.547Z" fill="#2F2E41"/>
<path d="M728.3 545.991L690.295 550.393L675.316 576.012L673.168 584.59L674.14 590.487L671.735 594.597L673.168 602.459L667.439 664.646L683.192 734.696H697.87L693.216 669.65L705.388 613.896L716.128 668.22L765.797 711.402L777.366 694.845L739.04 662.502L735.46 651.065L740.283 641.396L744.052 577.442L728.3 545.991Z" fill="#2F2E41"/>
<path d="M710.206 569.432C710.206 569.432 734.17 576.881 736.695 568.453C739.219 560.024 736.068 549.606 733.68 548.499C731.292 547.392 734.124 540.127 736.774 535.271C739.425 530.414 739.016 527.743 737.495 527.162C735.973 526.581 712.249 467.765 712.249 467.765L704.184 466.073L697.716 458.149L683.987 459.806L678.372 470.177L668.967 475.152L665.532 506.712C665.532 506.712 667.221 520.235 670.661 534.462C671.731 538.889 672.971 543.383 674.382 547.56C677.705 557.397 681.979 565.47 687.227 566.732C701.866 570.253 710.206 569.432 710.206 569.432Z" fill="#00BCFF"/>
<path d="M628.443 514.075L623.554 514.974L622.423 515.18L620.609 515.519L582.874 522.452C580.894 523.737 578.297 523.527 576.545 521.938C574.528 520.075 574.407 516.926 576.273 514.913C576.305 514.878 576.339 514.851 576.371 514.817C578.322 512.778 581.555 512.667 583.647 514.559C583.847 514.751 584.033 514.957 584.198 515.176L585.217 514.844L588.411 513.806L590.825 513.022L595.626 511.455L597.487 510.85L603.523 508.886L609.344 506.993L616.399 504.697L621.821 502.93L622.902 504.75L628.443 514.075Z" fill="#FFB6B6"/>
<path d="M637.359 515.598C636.303 515.716 635.606 515.744 635.363 515.689C633.34 515.202 635.579 513.883 631.104 515.791C627.471 517.335 627.166 514.559 626.642 515.743C625.774 517.699 624.551 515.712 623.553 514.974C623.112 514.642 622.719 514.565 622.422 515.18C622.315 515.387 622.226 515.682 622.15 516.081C621.914 517.273 621.329 516.799 620.608 515.519C619.421 513.396 617.869 509.067 616.985 506.435C616.724 505.691 616.527 505.078 616.398 504.697C616.306 504.414 616.259 504.252 616.259 504.252C616.259 504.252 616.54 503.441 617.919 502.735C618.879 502.235 620.386 501.793 622.713 501.713C624.141 501.663 625.262 501.962 626.127 502.077C626.634 502.146 627.054 502.149 627.394 501.99L627.402 501.988C627.78 501.819 628.068 501.457 628.284 500.766C628.673 499.52 630.303 499.67 631.917 500.077C633.434 500.469 634.948 501.081 635.397 500.949C636.041 500.76 653.131 485.683 664.047 476.012C669.035 471.594 676.64 471.942 681.201 476.799L685.842 481.74C685.842 481.74 688.821 483.706 689.361 487.394C689.583 488.946 689.376 490.808 688.317 492.971C687.388 494.861 685.798 496.986 683.278 499.318C672.574 509.229 645.151 514.753 637.359 515.598Z" fill="#00BCFF"/>
<path d="M744.012 519.01L745.818 523.633L746.235 524.703L746.911 526.417L760.856 562.101C762.494 563.8 762.777 566.385 761.545 568.403C760.093 570.732 757.019 571.446 754.685 569.996C754.646 569.972 754.613 569.943 754.573 569.919C752.199 568.391 751.48 565.243 752.945 562.834C753.097 562.602 753.264 562.38 753.448 562.177L752.929 561.241L751.305 558.305L750.079 556.088L747.63 551.677L746.683 549.966L743.612 544.42L740.651 539.07L737.061 532.588L734.299 527.606L735.884 526.202L744.012 519.01V519.01Z" fill="#FFB6B6"/>
<path d="M743.826 509.98C744.14 510.994 744.3 511.671 744.292 511.92C744.195 513.995 742.475 512.05 745.197 516.076C747.401 519.346 744.728 520.169 745.992 520.46C748.079 520.941 746.356 522.515 745.818 523.633C745.576 524.129 745.573 524.528 746.234 524.703C746.459 524.769 746.765 524.801 747.172 524.799C748.39 524.806 748.034 525.469 746.911 526.417C745.046 527.982 741.081 530.321 738.659 531.684C737.976 532.081 737.411 532.389 737.06 532.588C736.799 532.731 736.649 532.809 736.649 532.809C736.649 532.809 735.797 532.686 734.843 531.468C734.17 530.62 733.45 529.227 732.933 526.961C732.613 525.57 732.696 524.415 732.646 523.545C732.618 523.035 732.541 522.622 732.322 522.319L732.318 522.312C732.08 521.974 731.67 521.759 730.949 521.678C729.65 521.532 729.49 519.905 729.585 518.247C729.685 516.685 730 515.085 729.786 514.67C729.333 513.791 713.735 498.175 713.735 498.175L701.366 468.843C701.366 468.843 702.738 465.551 706.263 464.325C707.748 463.815 709.619 463.666 711.946 464.296C713.98 464.85 716.372 466.007 719.141 468.037C730.911 476.66 741.523 502.501 743.826 509.98H743.826Z" fill="#00BCFF"/>
<path d="M686.421 456.355C695.538 456.355 702.929 448.977 702.929 439.875C702.929 430.773 695.538 423.395 686.421 423.395C677.304 423.395 669.913 430.773 669.913 439.875C669.913 448.977 677.304 456.355 686.421 456.355Z" fill="#FFB6B6"/>
<path d="M700.416 452.883C700.416 452.883 694.946 455.127 692.226 455.44C693.593 453.335 695.492 449.585 696.855 447.486C697.569 446.38 698.298 445.25 698.622 443.982C698.945 442.704 698.8 441.24 697.929 440.263C697.091 439.315 695.628 438.987 694.469 439.488C693.303 439.984 692.536 441.268 692.638 442.519C691.613 442.13 691.385 440.757 691.575 439.674C691.764 438.591 692.207 437.483 691.899 436.423C691.603 435.396 690.622 434.671 689.578 434.406C688.543 434.138 687.445 434.263 686.385 434.462C683.356 435.02 680.411 436.165 677.323 436.202C676.713 436.213 676.094 436.159 675.474 436.053C675.997 434.368 675.967 432.511 675.303 430.877C674.674 432.41 673.749 433.821 672.6 435.023C671.33 434.301 670.326 433.239 669.881 431.847C669.388 430.305 669.671 428.595 670.345 427.126C670.656 426.451 671.044 425.816 671.486 425.216C671.928 425.242 672.38 425.224 672.818 425.164C673.787 425.042 674.718 424.753 675.57 424.269C674.689 424.039 673.834 423.716 673.024 423.295C673.061 423.251 673.094 423.213 673.131 423.168C673.948 422.247 674.827 421.306 675.987 420.899C677.146 420.491 678.656 420.799 679.222 421.895C682.401 419.171 686.706 417.796 690.884 418.18C694.987 418.559 698.916 420.623 701.552 423.798C700.729 424.317 700.004 424.975 699.439 425.768C700.515 425.57 701.618 425.517 702.711 425.601C703.187 426.624 703.35 427.727 702.84 428.7C703.859 429.644 705.897 431.32 704.601 431.623C706.661 435.008 707.401 439.172 706.637 443.059C705.87 446.952 703.606 450.53 700.416 452.883V452.883Z" fill="#2F2E41"/>
<path d="M477.639 745.96L486.43 745.959L490.612 712.11L477.638 712.111L477.639 745.96Z" fill="#A0616A"/>
<path d="M477.331 755.115L504.363 755.114V754.772C504.362 748.972 499.652 744.269 493.841 744.269H493.84L488.903 740.529L479.69 744.269L477.33 744.269L477.331 755.115Z" fill="#2F2E41"/>
<path d="M403.716 738.356L412.036 741.188L426.94 710.499L414.66 706.319L403.716 738.356Z" fill="#A0616A"/>
<path d="M400.463 746.921L426.048 755.632L426.158 755.309C428.034 749.819 425.096 743.85 419.597 741.977L419.596 741.977L416.132 736.846L406.203 737.417L403.97 736.656L400.463 746.921H400.463Z" fill="#2F2E41"/>
<path d="M499.527 561.523C499.527 561.523 507.985 587.455 506.424 590.869C504.863 594.282 502.199 591.623 504.863 594.282C507.526 596.941 509.852 594.114 507.357 598.63C504.863 603.145 501.084 640.318 499.422 642.117C497.76 643.917 495.475 643.965 497.505 645.714C499.536 647.462 502.199 643.917 499.536 647.462C496.872 651.008 489.805 732.796 489.805 732.796H475.998C475.998 732.796 472.559 728.839 474.505 726.263C476.452 723.688 474.334 722.695 474.505 720.976C474.676 719.256 474.029 715.549 473.909 713.857C473.788 712.165 471.455 671.864 477.061 648.584L466.839 604.256L454.456 657.832C454.456 657.832 434.587 697.399 428.891 711.845C428.891 711.845 433.484 715.663 431.447 717.875C429.41 720.088 427.635 718.315 429.41 720.088C431.186 721.86 426.747 728.065 426.747 728.065L406.271 727.178L428.675 648.584C428.675 648.584 427.235 639.827 428.675 638.327C430.115 636.826 430.115 642.144 430.115 636.826V629.735C430.115 629.735 430.949 586.123 431.061 583.555C431.172 580.987 441.826 562.373 441.826 562.373L499.527 561.523Z" fill="#2F2E41"/>
<path d="M499.186 471.954V523.089C499.186 523.089 496.605 530.155 496.659 538.443C496.714 547.135 498.629 557.153 498.623 561.533C498.623 562.289 498.568 562.87 498.435 563.257C489.958 587.787 445.098 565.495 441.02 563.408C440.826 563.311 440.723 563.257 440.723 563.257L441.608 535.781L441.457 527.88L440.408 473.684L441.347 472.934L449.576 466.383L450.382 465.741L452.855 469.341L474.893 467.828L483.304 465.505L485.928 466.57L497.756 471.373L499.186 471.954Z" fill="#3F3D56"/>
<path d="M565.462 540.56L552.979 530.149L546.026 536.438L559.617 546.977C559.714 547.493 559.888 548.003 560.144 548.492C561.539 551.151 564.83 552.178 567.494 550.785C570.157 549.392 571.186 546.107 569.79 543.448C568.901 541.752 567.24 540.724 565.462 540.56Z" fill="#A0616A"/>
<path d="M488.049 470.914C485.151 474.953 487.043 481.498 488.743 486.167C490.925 492.168 517.397 518.313 524.162 519.706C529.408 520.786 528.284 520.675 529.666 524.04C531.047 527.406 526.925 526.437 531.993 528.931C537.061 531.426 537.958 529.465 538.2 532.128C538.442 534.792 536.914 535.736 540.527 537.019C544.141 538.303 544.771 539.32 545.911 540.023C547.05 540.725 553.306 547.408 553.306 547.408C553.306 547.408 559.879 539.832 565.094 538.017C565.094 538.017 556.607 533.416 556.68 531.261C556.753 529.106 557.966 527.654 555.493 527.072C553.019 526.491 550.787 528.572 552.389 525.474C553.99 522.375 539.636 509.444 539.636 509.444C534.333 497.477 520.321 484.646 504.689 471.655C499.939 467.707 493.133 467.403 488.049 470.914L488.049 470.914Z" fill="#3F3D56"/>
<path d="M435.441 573.777L434.74 557.553L425.4 556.66L426.752 573.786C426.436 574.206 426.175 574.677 425.986 575.196C424.957 578.016 426.413 581.136 429.239 582.163C432.064 583.19 435.189 581.737 436.218 578.916C436.874 577.117 436.516 575.199 435.441 573.777V573.777Z" fill="#A0616A"/>
<path d="M445.204 472.105L444.942 472.136C440 472.718 435.663 475.697 433.352 480.096C430.378 485.749 420.971 524.031 423.274 529.285C425.422 534.185 425.333 532.98 423.772 536.266C422.211 539.553 420.152 535.858 421.719 541.278C423.286 546.698 425.342 546.039 423.533 548.012C421.725 549.984 419.997 549.492 421.48 553.023C422.963 556.554 422.635 557.704 422.882 559.018C423.13 560.332 422.396 569.45 422.396 569.45C422.396 569.45 432.433 569.197 437.289 571.822C437.289 571.822 434.979 562.46 436.623 561.062C438.268 559.665 440.16 559.582 438.925 557.365C437.689 555.148 434.645 554.904 438.017 553.998C441.39 553.092 441.295 533.791 441.295 533.791L445.204 472.105V472.105Z" fill="#3F3D56"/>
<path d="M469.267 451.429C468.873 451.519 468.479 451.598 468.085 451.658C466.861 451.858 465.637 451.919 464.444 451.846C460.82 451.658 457.402 450.322 454.639 448.12C451.718 445.797 449.537 442.512 448.622 438.604C446.471 429.379 452.221 420.147 461.462 418C470.57 415.876 479.677 421.418 482.004 430.407C482.041 430.546 482.077 430.679 482.107 430.818C484.258 440.05 478.514 449.275 469.267 451.429Z" fill="#A0616A"/>
<path d="M453.402 449.403C451.011 447.536 450.779 443.975 448.739 441.731C445.328 437.978 443.725 433.941 445.512 429.494C447.092 425.562 446.757 420.727 450.16 418.196C448.489 417.592 448.095 416.337 449.57 416.314C450.565 416.298 454.273 418.196 452.489 415.832C450.705 413.467 454.082 414.401 453.859 413.433C453.636 412.465 452.203 411.929 451.571 412.696C453.588 410.337 457.994 410.84 459.425 413.593C461.435 410.585 463.57 408.515 466.646 410.424C469.668 412.299 469.629 414.617 472.878 414.06C474.406 413.798 474.55 416.679 475.593 417.823C476.637 418.967 478.163 419.853 479.686 419.565C481.209 419.278 482.373 417.383 481.52 416.091L485.109 424.267L486.556 422.495C488.855 423.991 488.1 427.893 485.786 429.365C483.472 430.837 479.056 427.435 477.8 429.87C475.821 433.709 471.177 431.771 467.988 429.058C464.121 425.767 459.453 435.772 461.316 440.49C459.383 438.596 455.808 440.168 454.806 442.681C453.805 445.194 454.539 448.025 455.282 450.626L453.402 449.403H453.402Z" fill="#2F2E41"/>
<path d="M486.144 466.57L485.544 467.332L483.932 469.377L477.966 486.969L449.792 466.383L450.598 465.741L454.888 456.637L476.927 455.125L483.52 465.505L486.144 466.57Z" fill="#E6E6E6"/>
<path d="M768.575 188.995C778.667 170.388 785.22 152.146 787.562 135.319C778.205 134.223 769.929 134.987 762.702 137.418C775.144 116.642 783.451 91.0569 772.639 77.9227C765.83 70.6823 757.03 65.2622 746.628 61.6623C749.992 46.0626 750.033 31.4471 746.197 18.5979C728.409 -41.2256 610.668 66.5566 535.529 19.9057C504.028 0.355544 470.118 24.9888 442.655 64.6015C446.422 77.7744 453.379 90.0168 463.148 99.6301C450.701 98.7402 438.456 95.0728 427.557 88.9786C398.169 141.818 380.407 207.965 389.301 237.87C395.074 257.272 408.893 270.31 428.283 277.024C424.919 292.624 497.605 404.606 510.998 404.49C546.603 404.18 557.674 323.145 581.446 426.991L528.491 751H605.191V416.852C626.533 383.835 648.577 405.918 699.384 380.221C855.218 301.4 788.785 214.525 768.575 188.995Z" fill="#F2F2F2"/>
<path d="M128.912 627.176L130.152 651.086L141.535 654.193C141.535 654.193 136.667 626.2 136.362 625.356C137.061 624.338 137.442 623.091 137.36 621.764C137.164 618.599 134.436 616.192 131.265 616.387C128.095 616.582 125.684 619.306 125.879 622.471C126.007 624.533 127.213 626.268 128.912 627.176H128.912Z" fill="#FFB6B6"/>
<path d="M87.9488 680.617L87.6793 681.183C86.7765 681.398 86.9247 681.142 87.9488 680.617Z" fill="#00BCFF"/>
<path d="M136.776 675.526C130.6 673.847 124.249 673.391 118.221 673.646C111.83 673.901 105.816 674.962 100.81 676.198C99.882 673.015 99.0074 669.643 98.375 666.46L105.183 662.04L112.678 659.421L128.366 653.941L128.164 645.438L129.819 644.673L139.117 640.388L139.332 640.294L146.019 658.4C148.589 665.721 144.31 673.646 136.776 675.526H136.776Z" fill="#00BCFF"/>
<path d="M261.451 244.278C258.735 218.653 221.934 219.39 230.143 194.723C214.522 201.641 200.152 211.272 188.059 223.388C221.207 115.114 92.8448 197.458 92.8448 197.458C92.8448 197.458 57.379 182.203 47.3772 175.286C7.43737 148.144 -54.2227 215.591 -3.00793 252.091C-59.9679 225.248 -64.749 266.857 -74.6262 315.238C-70.8588 328.361 -63.9026 340.558 -54.132 350.137C-70.2122 349.254 -85.8544 337.664 -77.8285 361.181C-63.3979 390.116 -39.2175 395.366 -44.0679 431.304C-43.7064 462.553 17.9531 470.566 85.0439 463.945C46.7544 572.813 25.9442 673.862 44.2831 757.396H109.94C87.2551 656.683 82.2866 557.964 101.809 462.001C176.283 452.099 251.729 425.302 253.474 393.091C262.436 369.719 259.341 343.876 246.855 319.496C261.87 291.919 267.737 265.35 261.451 244.278Z" fill="#F2F2F2"/>
<path d="M103.171 688.734L105.457 698.538C105.457 698.538 105.479 707.578 107.083 709.245C108.675 710.904 143.694 707.573 143.694 707.573C143.694 707.573 139.981 693.005 140.03 681.982L103.171 688.734Z" fill="#FFB6B6"/>
<path d="M238.236 778.203L244.263 773.865L230.225 747.97L221.329 754.373L238.236 778.203Z" fill="#FFB6B6"/>
<path d="M261.476 765.684C261.368 765.536 261.261 765.402 261.14 765.268C260.79 764.905 260.359 764.623 259.902 764.462L259.875 764.448C259.35 764.247 258.785 764.193 258.22 764.274L255.731 764.663L246.097 766.154L244.065 766.477L240.405 762.635L238.993 764.139L234.122 769.351L232.884 770.667L231.929 771.688L243.702 786.356L247.738 782.528L244.845 778.042L250.308 780.097L253.389 777.169L255.448 775.234L261.018 769.955C261.57 769.432 261.893 768.773 262.014 768.075C262.149 767.256 261.974 766.396 261.476 765.684H261.476Z" fill="#2F2E41"/>
<path d="M234.633 753.798L223.73 758.673C212.433 746.747 201.066 731.425 193.944 706.371C177.675 727.399 163.342 739.305 143.885 749.744C137.315 753.298 113.547 754.572 109.849 747.921C109.676 747.61 109.515 747.293 109.367 746.97C105.967 739.493 108.973 720.03 107.05 710.142C114.075 697.27 131.216 707.668 142.941 702.599L156.059 708.288L180.39 679.41C185.283 673.602 194.045 672.965 199.96 677.988C200.273 678.253 200.574 678.532 200.862 678.823C205.767 687.129 210.454 695.294 214.73 703.193C216.11 705.743 220.455 709.17 218.736 710.756C217.017 712.341 221.402 715.979 222.645 718.533C230.298 734.254 233.497 742.296 234.633 753.798H234.633Z" fill="#2F2E41"/>
<path d="M98.0819 626.664L112.523 625.813C113.772 625.739 114.93 626.464 115.406 627.618L119.488 637.495L136.449 651.491C136.449 651.491 143.164 660.022 143.18 671.04C143.196 682.058 142.941 702.599 142.941 702.599C142.941 702.599 135.762 693.788 129.712 697.451C128.683 698.074 128.321 699.348 127.243 699.992C126.705 700.314 125.463 700.001 124.92 700.323C116.584 705.263 108.228 709.01 107.078 709.243C102.762 710.118 101.41 706.791 104.324 702.158C105.275 700.646 103.549 699.091 103.549 699.091C101.356 697.892 100.536 696.191 102.062 693.636L90.3296 650.603C88.9207 645.436 89.781 639.859 92.8876 635.492C93.8111 634.194 94.7787 633.228 95.6779 633.069C97.6969 632.64 96.623 628.122 98.0819 626.664Z" fill="#00BCFF"/>
<path d="M271.455 781.588L274.197 774.7L248.298 760.627L244.25 770.792L271.455 781.588Z" fill="#FFB6B6"/>
<path d="M262.57 766.529L259.32 778.903C237.309 773.188 214.626 759.759 191.626 742.684C166.243 750.524 142.165 755.222 120.273 752.573C112.864 751.701 107.28 744.778 108.089 737.215C108.126 736.861 108.178 736.51 108.242 736.16C109.769 728.093 122.515 721.012 126.635 711.822L153.729 718.262L155.742 723.46L161.844 721.851L166.995 720.492L172.893 718.936L192.225 713.837C199.562 711.901 207.082 716.418 209.021 723.924C209.123 724.321 209.209 724.721 209.277 725.125L236.052 745.927C236.052 745.927 238.441 751.504 240.277 749.21C242.113 746.916 245.553 753.308 245.553 753.308L262.57 766.529Z" fill="#2F2E41"/>
<path d="M291.36 764.045C290.351 763.642 289.194 763.763 288.293 764.368L276.371 772.306L271.433 770.345L270.64 772.763L268.15 780.272L267.545 782.112L284.404 790.494L286.463 785.322L281.942 782.461L287.768 782.045L293.217 768.344C293.89 766.651 293.056 764.717 291.36 764.045V764.045Z" fill="#2F2E41"/>
<path d="M82.4271 598.487C82.052 600.17 81.6428 601.925 80.5318 603.245C79.4209 604.566 77.3765 605.276 75.9191 604.351C74.1372 603.219 74.2792 600.622 74.6342 598.543L75.7599 591.952C75.9746 590.695 76.1966 589.415 76.7785 588.28C77.3604 587.144 78.369 586.155 79.6246 585.919C80.9529 585.67 82.3406 586.322 83.2264 587.341C84.1123 588.36 84.5575 589.694 84.7753 591.026C85.353 594.558 84.4043 598.313 82.2177 601.149L82.4271 598.487V598.487Z" fill="#2F2E41"/>
<path d="M77.1178 589.036C74.7143 586.108 69.7032 586.547 67.0331 589.234C64.3629 591.92 63.7004 596.063 64.1741 599.819C64.6465 603.573 66.627 618.982 67.2516 621.939C68.0332 625.64 62.2077 628.342 58.4824 627.645C58.7763 630.238 60.5306 632.549 62.822 633.806C65.1145 635.059 67.8712 635.317 70.4357 634.821C71.4733 634.62 72.4918 634.294 73.4538 633.848C73.019 632.729 72.7491 631.545 72.6717 630.344C73.1685 631.406 73.8625 632.372 74.7017 633.189C76.0657 632.366 77.2678 631.292 78.1885 629.995C79.9934 627.454 80.6311 624.059 79.6246 621.108C78.4532 617.661 75.3683 615.282 73.1807 612.37C70.9908 609.459 69.871 604.91 72.557 602.447C74.6023 600.571 74.4797 600.986 77.2224 601.422L77.1178 589.036L77.1178 589.036Z" fill="#2F2E41"/>
<path d="M113.237 601.336C113.237 610.392 105.884 617.733 96.8128 617.733C87.7418 617.733 79.125 607.239 79.125 598.183C79.125 589.127 87.7418 584.939 96.8128 584.939C105.884 584.939 113.237 592.28 113.237 601.336Z" fill="#2F2E41"/>
<path d="M101.765 621.303C110.419 621.303 117.435 614.3 117.435 605.66C117.435 597.021 110.419 590.017 101.765 590.017C93.1112 590.017 86.0957 597.021 86.0957 605.66C86.0957 614.3 93.1112 621.303 101.765 621.303Z" fill="#FFB6B6"/>
<path d="M121.45 603.228C116.811 604.493 112.128 605.818 110.319 603.228C109.965 601.513 109.302 599.867 108.354 598.397C108.177 600.05 107.786 601.677 107.198 603.228C105.161 603.594 102.327 603.594 102.327 603.594C101.664 604.735 98.6301 606.624 98.5227 607.993C98.289 607.841 98.0426 607.722 97.7899 607.608C97.4741 607.476 97.1014 607.362 96.7918 607.52C96.5581 607.64 96.4254 607.898 96.3812 608.157C96.337 608.415 96.3749 608.68 96.4191 608.945C96.5518 609.834 96.6971 610.761 97.2088 611.505C97.5688 612.035 98.1753 612.451 98.7943 612.521C99.4513 616.21 100.904 621.198 100.904 621.198C85.1112 621.829 80.3887 610.19 80.3887 600.075L82.2838 596.291H88.6009V588.093H106.289C114.659 588.093 121.45 594.872 121.45 603.228L121.45 603.228Z" fill="#2F2E41"/>
<path d="M151.234 724.411C148.018 724.2 145.582 721.426 145.794 718.215C145.815 717.892 145.869 717.579 145.94 717.274L108.508 689.224L118.302 684.886L153.358 713.041C155.872 713.824 157.622 716.24 157.441 718.98C157.23 722.191 154.451 724.622 151.234 724.411Z" fill="#FFB6B6"/>
<path d="M143.422 703.17L141.767 703.734L132.349 706.945C132.349 706.945 132.147 706.851 131.784 706.676C128.03 704.836 106.865 694.345 105.6 690.678C104.981 688.878 102.788 682.928 100.81 676.198C99.8819 673.015 99.0074 669.643 98.375 666.46C97.3524 661.355 96.9757 656.708 98.0386 654.021C101.16 646.137 108.291 648.165 108.291 648.165L112.678 659.421L118.221 673.646L122.702 685.144C128.595 686.716 135.807 694.103 143.422 703.17H143.422Z" fill="#00BCFF"/>
<path d="M133.008 614.047C132.833 614.047 132.658 614.074 132.496 614.101C132.268 613.846 131.972 613.658 131.608 613.563C131.447 613.51 131.258 613.496 131.07 613.496L119.162 613.805C119.068 613.805 118.961 613.819 118.88 613.832C118.463 613.913 118.099 614.128 117.844 614.423C117.75 614.517 117.669 614.625 117.602 614.746C117.346 615.175 117.279 615.713 117.454 616.25C116.77 621.644 117.025 626.806 119.526 631.415C119.781 632.181 120.521 632.705 121.329 632.691L129.065 632.49C129.106 632.49 129.146 632.49 129.186 632.476C129.953 632.409 130.613 631.885 130.814 631.133C132.71 627.166 133.109 623.265 131.904 619.433C132.281 619.608 132.712 619.702 133.142 619.689C134.272 619.662 135.228 618.977 135.645 618.023C135.82 617.647 135.914 617.231 135.9 616.801C135.86 615.243 134.555 614.007 133.008 614.047H133.008ZM133.129 618.883C132.765 618.896 132.429 618.802 132.133 618.641L132.739 616.478L132.913 615.847C133.008 615.511 132.994 615.175 132.913 614.866C132.954 614.866 132.994 614.853 133.034 614.853C134.138 614.826 135.066 615.713 135.093 616.814C135.093 617.042 135.066 617.271 134.999 617.472C134.743 618.278 134.017 618.856 133.129 618.883Z" fill="#3F3D56"/>
<path d="M118.874 613.835C119.128 615.283 121.98 616.301 125.409 616.124C128.563 615.979 131.142 614.874 131.614 613.563C131.449 613.511 131.264 613.491 131.075 613.492L119.168 613.799C119.065 613.806 118.963 613.813 118.874 613.835Z" fill="#00BCFF"/>
</g>
<defs>
<clipPath id="clip0_435_757">
<rect width="964" height="814" fill="white" transform="translate(-80)"/>
</clipPath>
</defs>
</svg>
