<svg width="927" height="786" viewBox="0 0 927 786" fill="none" xmlns="http://www.w3.org/2000/svg">
<g clip-path="url(#clip0_435_978)">
<path d="M894.203 329.056C847.863 388.316 760.423 401.886 688.073 381.246C664.4 374.328 641.562 364.821 619.973 352.896C607.433 346.086 595.193 338.616 583.203 330.656C580.253 328.706 577.303 326.726 574.383 324.706C572.393 323.346 570.409 321.97 568.433 320.576C543.673 303.156 519.883 284.046 496.493 265.046C438.103 217.616 378.113 168.726 306.373 146.096C291.593 141.436 272.473 139.256 263.333 151.776C255.403 162.646 260.243 178.036 266.953 189.696C291.843 232.886 337.023 260.156 382.243 281.126C427.462 302.096 475.363 319.086 514.672 349.746C553.983 380.406 583.993 429.136 575.953 478.326C569.023 520.716 534.413 555.156 494.172 570.166C453.933 585.166 409.053 583.076 367.223 573.336C325.393 563.586 285.683 546.576 245.313 531.916C220.973 523.066 189.153 516.946 173.003 537.196C159.363 554.306 167.203 581.296 183.813 595.536C200.422 609.776 222.903 614.546 244.353 618.826C310.953 632.126 377.553 645.423 444.153 658.716C464.583 662.786 485.493 667.046 503.293 677.886C521.093 688.716 535.453 707.636 534.943 728.466C534.433 748.996 519.403 767.136 500.983 776.226C482.573 785.306 461.313 786.706 440.803 785.726C363.943 782.046 143.593 659.936 90.7428 644.326C56.7828 634.306 19.6529 619.586 5.33261 587.206C-12.4975 546.896 16.8429 498.126 56.8927 479.716C96.9327 461.296 143.353 465.376 186.993 471.576C230.633 477.776 275.712 485.666 318.193 473.886C360.672 462.106 399.593 423.706 395.403 379.826C391.753 341.646 357.363 312.876 321.172 300.196C292.843 290.266 262.703 287.566 232.943 283.096C224.683 281.866 216.453 280.486 208.303 278.786C187.431 274.413 167.071 267.878 147.553 259.286C127.071 250.29 107.613 239.122 89.5128 225.976C75.0761 215.507 61.5845 203.792 49.193 190.966C47.3029 189.006 45.4328 187.003 43.5827 184.956C41.8229 182.996 40.0827 180.996 38.383 178.956C16.2629 152.526 -0.0774798 119.976 4.82291 86.4364C9.71256 52.9864 35.7829 25.1365 66.8229 11.7565C84.7628 4.02646 104.113 0.566454 123.703 0.0664536C138.027 -0.219825 152.347 0.811181 166.483 3.14646C231.893 13.6065 291.833 45.3865 348.443 79.7964C405.043 114.206 460.203 151.976 521.733 176.506C583.263 201.046 653.303 211.436 715.723 189.246C778.143 167.066 829.423 106.546 826.373 40.3764C867.773 76.0265 902.953 120.836 918.533 173.196C934.113 225.556 927.853 286.016 894.203 329.056Z" fill="#3F3D56"/>
<path d="M595.911 260.671C599.93 260.671 603.188 257.413 603.188 253.394C603.188 249.374 599.93 246.116 595.911 246.116C591.891 246.116 588.633 249.374 588.633 253.394C588.633 257.413 591.891 260.671 595.911 260.671Z" fill="#1BC3D4"/>
<path d="M852.911 168.646C859.125 168.646 864.163 163.608 864.163 157.394C864.163 151.18 859.125 146.142 852.911 146.142C846.697 146.142 841.659 151.18 841.659 157.394C841.659 163.608 846.697 168.646 852.911 168.646Z" fill="#FF6584"/>
<path d="M114.91 515.551C117.207 515.551 119.068 513.69 119.068 511.394C119.068 509.098 117.207 507.236 114.91 507.236C112.614 507.236 110.753 509.098 110.753 511.394C110.753 513.69 112.614 515.551 114.91 515.551Z" fill="#FF6584"/>
<path d="M234.243 272.396C234.245 276.002 233.809 279.596 232.943 283.096C224.683 281.866 216.453 280.486 208.303 278.786C187.431 274.413 167.071 267.878 147.553 259.286C150.691 249.152 157.36 240.48 166.347 234.843C175.335 229.206 186.045 226.978 196.535 228.565C207.025 230.151 216.598 235.446 223.516 243.488C230.435 251.531 234.241 261.787 234.243 272.396Z" fill="#FF6584"/>
<path d="M780.911 234.646C783.259 234.646 785.163 232.742 785.163 230.394C785.163 228.046 783.259 226.142 780.911 226.142C778.563 226.142 776.659 228.046 776.659 230.394C776.659 232.742 778.563 234.646 780.911 234.646Z" fill="#F0F0F0"/>
<path d="M391.911 702.646C394.259 702.646 396.163 700.742 396.163 698.394C396.163 696.046 394.259 694.142 391.911 694.142C389.563 694.142 387.659 696.046 387.659 698.394C387.659 700.742 389.563 702.646 391.911 702.646Z" fill="#F0F0F0"/>
<path d="M452.911 761.646C455.259 761.646 457.163 759.742 457.163 757.394C457.163 755.046 455.259 753.142 452.911 753.142C450.563 753.142 448.659 755.046 448.659 757.394C448.659 759.742 450.563 761.646 452.911 761.646Z" fill="#F0F0F0"/>
<path d="M75.9111 593.646C78.2594 593.646 80.1631 591.742 80.1631 589.394C80.1631 587.046 78.2594 585.142 75.9111 585.142C73.5628 585.142 71.6592 587.046 71.6592 589.394C71.6592 591.742 73.5628 593.646 75.9111 593.646Z" fill="#F0F0F0"/>
<path d="M284.911 514.646C287.259 514.646 289.163 512.742 289.163 510.394C289.163 508.046 287.259 506.142 284.911 506.142C282.563 506.142 280.659 508.046 280.659 510.394C280.659 512.742 282.563 514.646 284.911 514.646Z" fill="#F0F0F0"/>
<path d="M263.911 92.6457C266.259 92.6457 268.163 90.742 268.163 88.3937C268.163 86.0454 266.259 84.1417 263.911 84.1417C261.563 84.1417 259.659 86.0454 259.659 88.3937C259.659 90.742 261.563 92.6457 263.911 92.6457Z" fill="#F0F0F0"/>
<path d="M520.911 425.646C523.259 425.646 525.163 423.742 525.163 421.394C525.163 419.046 523.259 417.142 520.911 417.142C518.563 417.142 516.659 419.046 516.659 421.394C516.659 423.742 518.563 425.646 520.911 425.646Z" fill="#F0F0F0"/>
<path d="M552.911 499.646C555.259 499.646 557.163 497.742 557.163 495.394C557.163 493.046 555.259 491.142 552.911 491.142C550.563 491.142 548.659 493.046 548.659 495.394C548.659 497.742 550.563 499.646 552.911 499.646Z" fill="#F0F0F0"/>
<path d="M169.642 101.966C169.674 123.435 164.601 144.603 154.843 163.726C153.552 166.246 152.186 168.723 150.742 171.156C136.452 195.289 115.072 214.431 89.5124 225.976C75.0757 215.506 61.5841 203.792 49.1926 190.966C47.3025 189.006 45.4324 187.003 43.5823 184.956C41.8225 182.996 40.0823 180.996 38.3826 178.956C16.2624 152.526 -0.077889 119.976 4.8225 86.4363C9.71215 52.9863 35.7825 25.1362 66.8225 11.7562C84.7624 4.02623 104.112 0.566284 123.702 0.0662842C139.02 13.5933 151.095 30.3955 159.032 49.2263C160.032 51.5963 160.952 53.9963 161.822 56.4263C167.012 71.0479 169.657 86.4509 169.642 101.966Z" fill="#1BC3D4"/>
<path d="M231.643 108.966C231.643 129.796 211.303 149.116 174.363 163.386C166.973 166.246 159.063 168.836 150.743 171.156C119.603 179.836 82.5425 184.646 43.5825 184.956C41.8227 182.996 40.0825 180.996 38.3828 178.956C38.8027 178.966 39.2226 178.966 39.6426 178.966C81.9526 178.966 122.093 173.606 154.843 163.726C160.893 161.896 166.693 159.916 172.203 157.786C206.163 144.676 225.643 126.876 225.643 108.966C225.643 91.0562 206.163 73.2662 172.203 60.1462C168.843 58.8462 165.383 57.6062 161.823 56.4262C160.953 53.9962 160.033 51.5962 159.033 49.2262C164.353 50.8862 169.463 52.6595 174.363 54.5462C211.303 68.8162 231.643 88.1462 231.643 108.966Z" fill="#E4E4E4"/>
<path d="M45.9112 34.6457C48.2594 34.6457 50.1631 32.742 50.1631 30.3937C50.1631 28.0454 48.2594 26.1417 45.9112 26.1417C43.5629 26.1417 41.6592 28.0454 41.6592 30.3937C41.6592 32.742 43.5629 34.6457 45.9112 34.6457Z" fill="#F0F0F0"/>
<path d="M134.911 61.6457C137.259 61.6457 139.163 59.742 139.163 57.3937C139.163 55.0454 137.259 53.1417 134.911 53.1417C132.563 53.1417 130.659 55.0454 130.659 57.3937C130.659 59.742 132.563 61.6457 134.911 61.6457Z" fill="#F0F0F0"/>
<path d="M88.9109 141.742C111.747 141.742 130.259 123.23 130.259 100.394C130.259 77.5576 111.747 59.0453 88.9109 59.0453C66.0748 59.0453 47.5625 77.5576 47.5625 100.394C47.5625 123.23 66.0748 141.742 88.9109 141.742Z" fill="#F0F0F0"/>
<path opacity="0.3" d="M852.513 319.236C843.232 321.976 822.772 323.996 800.272 325.236C777.783 326.466 753.113 327.006 728.752 327.526C686.113 328.446 643.476 329.37 600.843 330.296C594.982 330.426 589.102 330.546 583.203 330.656C580.252 328.706 577.303 326.726 574.383 324.706C579.613 324.736 584.843 324.706 590.033 324.606C612.203 324.166 630.973 322.436 652.353 321.616C685.252 320.346 720.772 321.346 755.063 321.856C789.353 322.376 828.422 322.186 852.513 319.236Z" fill="#F0F0F0"/>
<path opacity="0.3" d="M198.084 634.467L62.1631 521.236L194.208 639.002C194.464 639.433 194.818 639.797 195.243 640.063C195.667 640.329 196.149 640.491 196.648 640.533C197.147 640.576 197.649 640.5 198.112 640.31C198.576 640.12 198.987 639.822 199.313 639.441C199.638 639.06 199.868 638.607 199.984 638.12C200.099 637.633 200.097 637.125 199.976 636.638C199.856 636.152 199.622 635.701 199.293 635.324C198.964 634.946 198.549 634.652 198.084 634.467H198.084Z" fill="#F0F0F0"/>
<path d="M94.9111 205.646C97.2594 205.646 99.1631 203.742 99.1631 201.394C99.1631 199.046 97.2594 197.142 94.9111 197.142C92.5628 197.142 90.6592 199.046 90.6592 201.394C90.6592 203.742 92.5628 205.646 94.9111 205.646Z" fill="#F0F0F0"/>
<path d="M452.017 694.074L469.604 694.073L477.971 626.236L452.014 626.237L452.017 694.074Z" fill="#FFB6B6"/>
<path d="M447.531 688.332L452.482 688.331L471.808 680.472L482.167 688.33H482.168C488.022 688.331 493.636 690.656 497.776 694.795C501.915 698.935 504.24 704.549 504.241 710.402V711.12L447.532 711.122L447.531 688.332Z" fill="#2F2E41"/>
<path d="M320.308 694.074L302.721 694.073L294.354 626.236L320.311 626.237L320.308 694.074Z" fill="#FFB6B6"/>
<path d="M324.793 711.122L268.085 711.12V710.402C268.085 704.549 270.411 698.935 274.55 694.795C278.69 690.656 284.304 688.331 290.158 688.33H290.159L300.517 680.472L319.844 688.331L324.795 688.332L324.793 711.122Z" fill="#2F2E41"/>
<path d="M383.325 174.188L365.517 187.748L318.212 200.276C318.212 200.276 335.163 319.236 327.163 327.236C319.163 335.236 326.378 335.451 324.77 345.844C323.163 356.236 316.757 383.674 316.757 383.674H457.945C457.945 383.674 459.082 366.622 452.122 362.929C445.163 359.236 458.538 342 452.85 339.118C447.163 336.236 455.163 311.236 455.163 311.236L472.5 229.387L426.386 193.307L419.373 176.409L383.325 174.188Z" fill="#1BC3D4"/>
<path d="M405.545 280.49C408.948 280.49 411.707 277.731 411.707 274.328C411.707 270.926 408.948 268.167 405.545 268.167C402.142 268.167 399.384 270.926 399.384 274.328C399.384 277.731 402.142 280.49 405.545 280.49Z" fill="#F2F2F2"/>
<path d="M316.757 383.674L310.935 533.595C310.935 533.595 285.796 644.325 290.163 647.236C294.529 650.147 296.379 667.505 296.379 667.505L321.124 670.416C321.124 670.416 321.124 658.772 326.946 654.405C332.768 650.039 386.623 444.807 386.623 444.807L439.163 643.236C439.163 643.236 440.478 654.405 444.845 654.405C449.211 654.405 450.667 670.416 450.667 670.416H475.411V654.405C475.411 654.405 486.529 650.88 482.163 639.236C477.796 627.592 457.945 383.674 457.945 383.674H316.757Z" fill="#2F2E41"/>
<path d="M401.817 165.254C418.297 165.254 431.656 151.895 431.656 135.415C431.656 118.936 418.297 105.577 401.817 105.577C385.338 105.577 371.979 118.936 371.979 135.415C371.979 151.895 385.338 165.254 401.817 165.254Z" fill="#FFB6B6"/>
<path opacity="0.1" d="M452.85 269.414L458.672 273.781L461.583 253.403L452.85 269.414Z" fill="black"/>
<path d="M321.002 200.16C321.002 200.16 313.725 198.705 309.358 211.805C304.991 224.904 288.98 274.393 288.98 283.126C288.98 291.859 388.691 330.393 388.691 330.393L378.316 293.997L332.647 270.026L321.002 200.16Z" fill="#1BC3D4"/>
<path d="M393.316 324.997C402.705 324.997 410.316 317.386 410.316 307.997C410.316 298.608 402.705 290.997 393.316 290.997C383.928 290.997 376.316 298.608 376.316 307.997C376.316 317.386 383.928 324.997 393.316 324.997Z" fill="#FFB6B6"/>
<path opacity="0.1" d="M331.316 251.997L332.647 270.026L374.878 292.192L337.316 266.997L331.316 251.997Z" fill="black"/>
<path d="M432.839 254.567H432.291V239.559C432.291 238.418 432.066 237.289 431.63 236.235C431.193 235.181 430.553 234.223 429.747 233.417C428.94 232.61 427.983 231.97 426.929 231.534C425.875 231.097 424.745 230.873 423.605 230.873H391.807C390.667 230.873 389.537 231.097 388.483 231.534C387.429 231.97 386.472 232.61 385.665 233.417C384.859 234.223 384.219 235.181 383.782 236.235C383.346 237.289 383.121 238.418 383.121 239.559V321.896C383.121 323.036 383.346 324.166 383.782 325.22C384.219 326.274 384.859 327.231 385.665 328.038C386.472 328.844 387.429 329.484 388.483 329.921C389.537 330.357 390.667 330.582 391.807 330.582H423.604C424.745 330.582 425.875 330.357 426.929 329.921C427.982 329.484 428.94 328.844 429.747 328.038C430.553 327.231 431.193 326.274 431.63 325.22C432.066 324.166 432.291 323.036 432.291 321.896V265.25H432.839V254.567Z" fill="#F0F0F0"/>
<path d="M472.5 229.387C472.5 229.387 476.867 232.298 479.778 245.398C482.689 258.498 501.611 307.986 494.333 319.63C487.056 331.275 484.907 343.703 460.163 326.236L425.923 294.886L450.667 271.598L460.856 278.875L472.5 229.387Z" fill="#1BC3D4"/>
<path d="M408.095 267.57C412.114 267.57 415.373 264.312 415.373 260.292C415.373 256.273 412.114 253.015 408.095 253.015C404.076 253.015 400.817 256.273 400.817 260.292C400.817 264.312 404.076 267.57 408.095 267.57Z" fill="#1BC3D4"/>
<path d="M429.163 293.236C438.552 293.236 446.163 285.625 446.163 276.236C446.163 266.847 438.552 259.236 429.163 259.236C419.774 259.236 412.163 266.847 412.163 276.236C412.163 285.625 419.774 293.236 429.163 293.236Z" fill="#FFB6B6"/>
<path opacity="0.1" d="M330.514 306.41L379.316 327.997L329.158 318.194L330.514 306.41Z" fill="black"/>
<path d="M371.713 141.362L367.616 125.77C366.547 121.702 365.47 117.551 365.71 113.352C365.95 109.152 367.731 104.819 371.269 102.543C374.807 100.268 380.208 100.806 382.485 104.343C382.917 98.6951 388.055 94.3509 393.506 92.8119C398.958 91.2729 404.745 91.8815 410.403 92.1412C416.062 92.4008 422.034 92.2196 426.918 89.3499C427.29 90.4664 427.266 91.6772 426.849 92.7779C426.432 93.8785 425.647 94.8015 424.629 95.3911C425.843 95.7224 427.137 95.5801 428.25 94.9931C429.363 94.406 430.212 93.4181 430.624 92.2291C430.661 95.5 429.452 98.6624 427.243 101.074C429.35 100.029 431.771 99.8049 434.035 100.446C436.298 101.087 438.243 102.547 439.489 104.542C441.981 108.863 440.585 114.289 439.127 119.059L431.643 143.542C430.508 139.82 430.294 135.891 429.687 132.047C429.08 128.204 427.999 124.279 425.462 121.329C422.925 118.379 418.616 116.671 415.011 118.135C412.989 118.957 411.447 120.625 409.621 121.821C405.874 124.276 401.109 124.628 396.658 124.129C392.206 123.629 387.869 122.362 383.418 121.855C380.631 121.538 377.522 121.622 375.419 123.478C373.973 124.981 373.018 126.888 372.681 128.946C371.688 133.048 371.298 137.272 371.523 141.486" fill="#2F2E41"/>
</g>
<defs>
<clipPath id="clip0_435_978">
<rect width="926.632" height="785.994" fill="white"/>
</clipPath>
</defs>
</svg>
