<svg width="177" height="121" viewBox="0 0 177 121" fill="none" xmlns="http://www.w3.org/2000/svg">
<g filter="url(#filter0_d_35_132)">
<path fill-rule="evenodd" clip-rule="evenodd" d="M63.3886 38.1114C63.3063 38.1848 61.2717 39.3112 53.3378 43.6757C51.9261 44.4523 50.793 45.1216 50.82 45.1632C50.847 45.2047 51.354 45.5014 51.9467 45.8226C52.5394 46.1437 54.5365 47.2416 56.3847 48.2624C58.2329 49.2832 60.2851 50.4156 60.9451 50.7788C61.6052 51.1421 62.4596 51.613 62.8438 51.8253C63.3354 52.097 63.5772 52.1843 63.6599 52.1203C63.7245 52.0702 65.1059 51.2849 66.7297 50.375C77.0591 44.5869 76.0948 45.147 75.9124 45.0421C75.739 44.9426 73.5368 43.704 71.4342 42.5234C70.5233 42.012 69.0328 41.175 68.1219 40.6636C67.2109 40.1522 65.8608 39.394 65.1216 38.9788C64.3823 38.5636 63.7252 38.1802 63.6615 38.1269C63.5207 38.0092 63.5041 38.0083 63.3886 38.1114ZM83.9875 39.4005V40.801L90.6691 40.7382L97.3505 40.6753L97.1737 40.8858C97.0765 41.0016 95.1175 43.1652 92.8204 45.6937C90.5234 48.2223 88.5881 50.3646 88.5198 50.4546C88.4127 50.5955 88.4591 50.7328 88.8558 51.4493L89.3161 52.2805L91.3033 52.2824C93.1766 52.2841 93.3363 52.2979 94.0876 52.5233C95.5026 52.9478 96.6238 53.6018 97.4996 54.5139C98.4793 55.5341 99.0144 57.7442 98.6677 59.3383C98.3179 60.9469 96.8323 62.5732 94.8484 63.5196C94.0548 63.8982 93.1885 64.0678 92.0389 64.0698C89.5639 64.074 87.1014 63.1434 84.9136 61.377L84.2909 60.8743L83.4192 61.8697C82.9397 62.4171 82.5474 62.9056 82.5474 62.955C82.5474 63.244 85.2924 65.052 86.8198 65.7691C88.6545 66.6305 91.028 66.9049 93.889 66.5863C96.6946 66.274 98.925 64.9858 100.412 62.8187C101.794 60.8044 102.341 58.0374 101.754 56.0305C101.444 54.9693 100.967 54.0438 100.294 53.1928C98.8689 51.3934 96.9919 50.3943 93.8959 49.7871C93.3006 49.6703 92.8133 49.5455 92.8129 49.5097C92.8122 49.4537 95.2942 46.7524 100.289 41.3725L101.566 39.998L101.501 39.1282C101.465 38.6498 101.431 38.2534 101.425 38.2472C101.384 38.2073 95.8393 38.114 90.3962 38.0617L83.9875 38V39.4005ZM103.213 52.5355L103.238 66.8583H104.774H106.31L106.335 60.3936L106.359 53.9289H115.143H123.926L123.951 60.4393L123.976 66.9497L125.488 66.9748L127 67V52.652V38.3041H125.416H123.832V44.6545V51.005H115.095H106.358V44.6089V38.2127H104.773H103.189L103.213 52.5355ZM74.6746 47.1885C72.0003 48.6807 70.636 49.4343 67.0674 51.3907L64.0206 53.0609L64.0191 59.8989L64.0175 66.7369L64.6655 66.395C65.0219 66.2069 67.2146 65.0379 69.538 63.7973C71.8615 62.5567 74.4429 61.1821 75.2746 60.7427L76.7868 59.9437V53.0073C76.7868 49.1922 76.7544 46.0752 76.7148 46.0805C76.6751 46.0859 75.7571 46.5844 74.6746 47.1885ZM50 53.0487V59.9443L53.8164 62.046C55.9155 63.202 58.7886 64.7851 60.2011 65.5641L62.7693 66.9804V59.9726V52.9647L58.5209 50.7026C56.1843 49.4585 53.5812 48.0698 52.7363 47.6166C51.8914 47.1633 50.9301 46.6487 50.6001 46.4729L50 46.1532V53.0487Z" fill="white"/>
</g>
<defs>
<filter id="filter0_d_35_132" x="0" y="-8" width="177" height="129" filterUnits="userSpaceOnUse" color-interpolation-filters="sRGB">
<feFlood flood-opacity="0" result="BackgroundImageFix"/>
<feColorMatrix in="SourceAlpha" type="matrix" values="0 0 0 0 0 0 0 0 0 0 0 0 0 0 0 0 0 0 127 0" result="hardAlpha"/>
<feOffset dy="4"/>
<feGaussianBlur stdDeviation="25"/>
<feComposite in2="hardAlpha" operator="out"/>
<feColorMatrix type="matrix" values="0 0 0 0 0 0 0 0 0 0 0 0 0 0 0 0 0 0 0.05 0"/>
<feBlend mode="normal" in2="BackgroundImageFix" result="effect1_dropShadow_35_132"/>
<feBlend mode="normal" in="SourceGraphic" in2="effect1_dropShadow_35_132" result="shape"/>
</filter>
</defs>
</svg>
