<?xml version="1.0" encoding="UTF-8" standalone="no"?>
<svg
   width="177"
   height="177"
   viewBox="0 0 177 177"
   fill="none"
   version="1.1"
   id="svg25"
   sodipodi:docname="logo.svg"
   inkscape:export-filename="logo.png"
   inkscape:export-xdpi="96"
   inkscape:export-ydpi="96"
   xmlns:inkscape="http://www.inkscape.org/namespaces/inkscape"
   xmlns:sodipodi="http://sodipodi.sourceforge.net/DTD/sodipodi-0.dtd"
   xmlns="http://www.w3.org/2000/svg"
   xmlns:svg="http://www.w3.org/2000/svg">
  <sodipodi:namedview
     id="namedview27"
     pagecolor="#ffffff"
     bordercolor="#666666"
     borderopacity="1.0"
     inkscape:showpageshadow="2"
     inkscape:pageopacity="0.0"
     inkscape:pagecheckerboard="0"
     inkscape:deskcolor="#d1d1d1"
     showgrid="false" />
  <g
     filter="url(#filter0_d_65_18)"
     id="g4"
     transform="translate(0,35)">
    <path
       fill-rule="evenodd"
       clip-rule="evenodd"
       d="m 63.3886,35.1114 c -0.0823,0.0734 -2.1169,1.1998 -10.0508,5.5643 -1.4117,0.7766 -2.5448,1.4459 -2.5178,1.4875 0.027,0.0415 0.534,0.3382 1.1267,0.6594 0.5927,0.3211 2.5898,1.419 4.438,2.4398 1.8482,1.0208 3.9004,2.1532 4.5604,2.5164 0.6601,0.3633 1.5145,0.8342 1.8987,1.0465 0.4916,0.2717 0.7334,0.359 0.8161,0.295 0.0646,-0.0501 1.446,-0.8354 3.0698,-1.7453 10.3294,-5.7881 9.3651,-5.228 9.1827,-5.3329 C 75.739,41.9426 73.5368,40.704 71.4342,39.5234 70.5233,39.012 69.0328,38.175 68.1219,37.6636 67.2109,37.1522 65.8608,36.394 65.1216,35.9788 64.3823,35.5636 63.7252,35.1802 63.6615,35.1269 63.5207,35.0092 63.5041,35.0083 63.3886,35.1114 Z m 20.5989,1.2891 v 1.4005 l 6.6816,-0.0628 6.6814,-0.0629 -0.1768,0.2105 c -0.0972,0.1158 -2.0562,2.2794 -4.3533,4.8079 -2.297,2.5286 -4.2323,4.6709 -4.3006,4.7609 -0.1071,0.1409 -0.0607,0.2782 0.336,0.9947 l 0.4603,0.8312 1.9872,0.0019 c 1.8733,0.0017 2.033,0.0155 2.7843,0.2409 1.415,0.4245 2.5362,1.0785 3.412,1.9906 0.9797,1.0202 1.5148,3.2303 1.1681,4.8244 -0.3498,1.6086 -1.8354,3.2349 -3.8193,4.1813 -0.7936,0.3786 -1.6599,0.5482 -2.8095,0.5502 -2.475,0.0042 -4.9375,-0.9264 -7.1253,-2.6928 l -0.6227,-0.5027 -0.8717,0.9954 c -0.4795,0.5474 -0.8718,1.0359 -0.8718,1.0853 0,0.289 2.745,2.097 4.2724,2.8141 1.8347,0.8614 4.2082,1.1358 7.0692,0.8172 2.8056,-0.3123 5.036,-1.6005 6.523,-3.7676 1.382,-2.0143 1.929,-4.7813 1.342,-6.7882 -0.31,-1.0612 -0.787,-1.9867 -1.46,-2.8377 -1.4251,-1.7994 -3.3021,-2.7985 -6.3981,-3.4057 -0.5953,-0.1168 -1.0826,-0.2416 -1.083,-0.2774 -7e-4,-0.056 2.4813,-2.7573 7.4761,-8.1372 l 1.277,-1.3745 -0.065,-0.8698 c -0.036,-0.4784 -0.07,-0.8748 -0.076,-0.881 -0.041,-0.0399 -5.5857,-0.1332 -11.0288,-0.1855 L 83.9875,35 Z m 19.2255,13.135 0.025,14.3228 h 1.536 1.536 l 0.025,-6.4647 0.024,-6.4647 h 8.784 8.783 l 0.025,6.5104 0.025,6.5104 1.512,0.0251 L 127,64 V 49.652 35.3041 h -1.584 -1.584 v 6.3504 6.3505 h -8.737 -8.737 v -6.3961 -6.3962 h -1.585 -1.584 z m -28.5384,-5.347 c -2.6743,1.4922 -4.0386,2.2458 -7.6072,4.2022 l -3.0468,1.6702 -0.0015,6.838 -0.0016,6.838 0.648,-0.3419 c 0.3564,-0.1881 2.5491,-1.3571 4.8725,-2.5977 2.3235,-1.2406 4.9049,-2.6152 5.7366,-3.0546 l 1.5122,-0.799 v -6.9364 c 0,-3.8151 -0.0324,-6.9321 -0.072,-6.9268 -0.0397,0.0054 -0.9577,0.5039 -2.0402,1.108 z M 50,50.0487 v 6.8956 l 3.8164,2.1017 c 2.0991,1.156 4.9722,2.7391 6.3847,3.5181 l 2.5682,1.4163 v -7.0078 -7.0079 l -4.2484,-2.2621 c -2.3366,-1.2441 -4.9397,-2.6328 -5.7846,-3.086 -0.8449,-0.4533 -1.8062,-0.9679 -2.1362,-1.1437 L 50,43.1532 Z"
       fill="#1bc3d4"
       id="path2" />
  </g>
  <defs
     id="defs23">
    <filter
       id="filter0_d_65_18"
       x="0"
       y="-11"
       width="177"
       height="129"
       filterUnits="userSpaceOnUse"
       color-interpolation-filters="sRGB">
      <feFlood
         flood-opacity="0"
         result="BackgroundImageFix"
         id="feFlood6" />
      <feColorMatrix
         in="SourceAlpha"
         type="matrix"
         values="0 0 0 0 0 0 0 0 0 0 0 0 0 0 0 0 0 0 127 0"
         result="hardAlpha"
         id="feColorMatrix8" />
      <feOffset
         dy="4"
         id="feOffset10" />
      <feGaussianBlur
         stdDeviation="25"
         id="feGaussianBlur12" />
      <feComposite
         in2="hardAlpha"
         operator="out"
         id="feComposite14" />
      <feColorMatrix
         type="matrix"
         values="0 0 0 0 0 0 0 0 0 0 0 0 0 0 0 0 0 0 0.05 0"
         id="feColorMatrix16" />
      <feBlend
         mode="normal"
         in2="BackgroundImageFix"
         result="effect1_dropShadow_65_18"
         id="feBlend18" />
      <feBlend
         mode="normal"
         in="SourceGraphic"
         in2="effect1_dropShadow_65_18"
         result="shape"
         id="feBlend20" />
    </filter>
  </defs>
</svg>
