<?xml version="1.0" encoding="UTF-8"?><svg id="Layer_1" xmlns="http://www.w3.org/2000/svg" viewBox="0 0 150 150"><defs><style>.cls-1{fill:#1bc3d4;fill-rule:evenodd;}</style></defs><path class="cls-1" d="M49.89,60.61c-.08,.07-2.12,1.2-10.05,5.56-1.41,.78-2.54,1.45-2.52,1.49,.03,.04,.53,.34,1.13,.66,.59,.32,2.59,1.42,4.44,2.44,1.85,1.02,3.9,2.15,4.56,2.52,.66,.36,1.51,.83,1.9,1.05,.49,.27,.73,.36,.82,.3,.06-.05,1.45-.84,3.07-1.75,10.33-5.79,9.37-5.23,9.18-5.33-.17-.1-2.38-1.34-4.48-2.52-.91-.51-2.4-1.35-3.31-1.86-.91-.51-2.26-1.27-3-1.68-.74-.42-1.4-.8-1.46-.85-.14-.12-.16-.12-.27-.02Zm20.6,1.29v1.4l6.68-.06,6.68-.06-.18,.21c-.1,.12-2.06,2.28-4.35,4.81-2.3,2.53-4.23,4.67-4.3,4.76-.11,.14-.06,.28,.34,.99l.46,.83h1.99c1.87,0,2.03,.02,2.78,.24,1.42,.42,2.54,1.08,3.41,1.99,.98,1.02,1.51,3.23,1.17,4.82-.35,1.61-1.84,3.23-3.82,4.18-.79,.38-1.66,.55-2.81,.55-2.47,0-4.94-.93-7.13-2.69l-.62-.5-.87,1c-.48,.55-.87,1.04-.87,1.09,0,.29,2.74,2.1,4.27,2.81,1.83,.86,4.21,1.14,7.07,.82,2.81-.31,5.04-1.6,6.52-3.77,1.38-2.01,1.93-4.78,1.34-6.79-.31-1.06-.79-1.99-1.46-2.84-1.43-1.8-3.3-2.8-6.4-3.41-.6-.12-1.08-.24-1.08-.28,0-.06,2.48-2.76,7.48-8.14l1.28-1.37-.07-.87c-.04-.48-.07-.87-.08-.88-.04-.04-5.59-.13-11.03-.19l-6.41-.06v1.4Zm19.23,13.13l.03,14.32h3.07l.03-6.46,.02-6.46h17.57l.02,6.51,.03,6.51,1.51,.03,1.51,.03v-28.7h-3.17v12.7h-17.47v-12.79h-3.17l.02,14.32Zm-28.54-5.35c-2.67,1.49-4.04,2.25-7.61,4.2l-3.05,1.67v6.84s0,6.84,0,6.84l.65-.34c.36-.19,2.55-1.36,4.87-2.6,2.32-1.24,4.9-2.62,5.74-3.05l1.51-.8v-6.94c0-3.82-.03-6.93-.07-6.93-.04,0-.96,.5-2.04,1.11Zm-24.67,5.86v6.9l3.82,2.1c2.1,1.16,4.97,2.74,6.38,3.52l2.57,1.42v-14.02l-4.25-2.26c-2.34-1.24-4.94-2.63-5.78-3.09-.84-.45-1.81-.97-2.14-1.14l-.6-.32v6.9Z"/></svg>