<svg width="319" height="274" viewBox="0 0 319 274" fill="none" xmlns="http://www.w3.org/2000/svg">
<g clip-path="url(#clip0_46_501)">
<path d="M93.7479 271.141C98.8689 266.799 101.979 259.94 101.164 253.263C100.348 246.586 95.2955 240.448 88.7418 239.03C82.1881 237.612 74.7173 241.537 72.7267 247.961C71.6312 235.576 70.3688 222.672 63.8066 212.126C57.8647 202.576 47.5731 195.742 36.4194 194.52C25.2657 193.298 13.5223 197.915 6.56616 206.748C-0.39 215.581 -2.09318 228.423 2.77873 238.565C6.36769 246.036 12.9798 251.595 19.9077 256.119C42.2942 270.612 69.1438 276.506 95.5165 272.715" fill="#F2F2F2"/>
<path d="M17.5958 198.17C26.799 205.692 35.2419 214.104 42.8025 223.286C54.6349 237.605 64.2097 253.66 71.1935 270.891C71.7047 272.148 69.6704 272.695 69.1649 271.452C64.7237 260.558 59.2291 250.127 52.7599 240.308C42.6719 224.97 30.3128 211.264 16.1082 199.663C15.058 198.805 16.5542 197.319 17.5958 198.17V198.17Z" fill="white"/>
<path d="M97.285 271.141C92.1641 266.799 89.0536 259.94 89.8693 253.263C90.6851 246.586 95.7375 240.448 102.291 239.03C108.845 237.612 116.316 241.537 118.306 247.961C119.402 235.576 120.664 222.672 127.226 212.126C133.168 202.576 143.46 195.742 154.614 194.52C165.767 193.298 177.511 197.915 184.467 206.748C191.423 215.581 193.126 228.423 188.254 238.565C184.665 246.036 178.053 251.595 171.125 256.119C148.739 270.612 121.889 276.506 95.5165 272.715" fill="#F2F2F2"/>
<path d="M173.437 198.17C164.234 205.692 155.791 214.104 148.23 223.286C136.398 237.605 126.823 253.66 119.839 270.891C119.328 272.148 121.362 272.695 121.868 271.452C133.295 243.448 151.536 218.766 174.925 199.663C175.975 198.805 174.479 197.319 173.437 198.17V198.17Z" fill="white"/>
<path d="M112.481 123.258C121.955 123.258 129.635 115.553 129.635 106.047C129.635 96.5409 121.955 88.835 112.481 88.835C103.008 88.835 95.3276 96.5409 95.3276 106.047C95.3276 115.553 103.008 123.258 112.481 123.258Z" fill="#F2F2F2"/>
<path d="M59.5922 46.7148H177.775V53.2027H74.6793C68.6176 53.2027 62.6153 54.4007 57.0151 56.7282C51.4148 59.0558 46.3263 62.4674 42.0401 66.7682C37.7538 71.0689 34.3538 76.1747 32.0341 81.794C29.7144 87.4132 28.5205 93.4359 28.5205 99.5181V173.228H15.5887C15.017 173.228 14.4688 173 14.0646 172.595C13.6604 172.189 13.4334 171.639 13.4333 171.065V93.0302C13.4333 86.948 14.6273 80.9253 16.947 75.3061C19.2667 69.6868 22.6667 64.5811 26.953 60.2803C31.2392 55.9795 36.3277 52.5679 41.928 50.2404C47.5282 47.9128 53.5305 46.7148 59.5922 46.7148Z" fill="#F2F2F2"/>
<path d="M82.3241 271.501V172.95H111.098V271.501C111.097 272.164 110.834 272.799 110.368 273.267C109.901 273.736 109.268 273.999 108.608 274H84.8141C84.154 273.999 83.521 273.736 83.0542 273.267C82.5874 272.799 82.3248 272.164 82.3241 271.501Z" fill="#52515B"/>
<path d="M7.34656 171.007V90.8702C7.36091 78.1129 12.4179 65.8822 21.4082 56.8614C30.3985 47.8406 42.5877 42.7664 55.3019 42.752H177.222V173.783H10.1133C9.37974 173.783 8.67651 173.49 8.15784 172.969C7.63917 172.449 7.3474 171.743 7.34656 171.007ZM176.115 43.8624H55.3019C42.8812 43.8765 30.9732 48.8337 22.1904 57.6463C13.4076 66.4589 8.46728 78.4073 8.45324 90.8702V171.007C8.45372 171.449 8.62877 171.872 8.93998 172.185C9.25119 172.497 9.67314 172.672 10.1133 172.673H176.115V43.8624Z" fill="#52515B"/>
<path d="M112.481 114.93C109.84 114.927 107.309 113.873 105.442 112C103.574 110.126 102.524 107.586 102.521 104.936V33.3131C102.521 32.8715 102.345 32.4481 102.034 32.1358C101.723 31.8235 101.301 31.6479 100.861 31.6474H62.1272C61.3937 31.6466 60.6904 31.3538 60.1718 30.8334C59.6531 30.3129 59.3613 29.6073 59.3605 28.8713V2.77609C59.3613 2.04009 59.6531 1.33447 60.1718 0.814036C60.6904 0.293603 61.3937 0.000852281 62.1272 0H119.675C120.408 0.000842016 121.111 0.293592 121.63 0.814027C122.149 1.33446 122.44 2.04008 122.441 2.77609V104.936C122.438 107.586 121.388 110.126 119.521 112C117.653 113.873 115.122 114.927 112.481 114.93Z" fill="#1BC3D4"/>
<path d="M181.649 41.6412C189.996 41.6236 198.009 44.9341 203.924 50.8443C209.839 56.7545 213.171 64.7803 213.189 73.1561V164.384H275.163C277.653 164.379 280.042 165.366 281.806 167.129C283.571 168.891 284.565 171.285 284.57 173.783H150.108V73.1561C150.126 64.7803 153.459 56.7545 159.374 50.8443C165.289 44.9341 173.301 41.6236 181.649 41.6412Z" fill="#52515B"/>
<path d="M174.08 93.5915L180.611 120.662L308.367 89.6298L301.836 62.5595C301.757 62.2285 301.596 61.9229 301.368 61.671C301.14 61.4191 300.852 61.2291 300.531 61.1187C300.294 61.0351 300.044 60.9973 299.793 61.0072L225.945 22.6406C225.512 22.4189 225.014 22.3597 224.542 22.4736C224.07 22.5876 223.653 22.8672 223.368 23.262L187.777 73.0616L174.36 91.8406C174.336 91.8735 174.319 91.9113 174.31 91.9514C174.302 91.9914 174.302 92.0329 174.311 92.0728C174.038 92.5289 173.955 93.0745 174.08 93.5915Z" fill="white"/>
<path d="M174.311 92.0728C174.317 92.108 174.33 92.1417 174.35 92.1718C174.369 92.2019 174.394 92.2278 174.423 92.2482C174.458 92.272 174.497 92.2885 174.538 92.2967C174.58 92.3048 174.622 92.3045 174.663 92.2957C174.73 92.2778 174.788 92.2371 174.828 92.1806L174.875 92.1166L175.573 91.1363L188.261 73.3892L223.841 23.601C224.044 23.3189 224.341 23.1191 224.678 23.038C225.015 22.9569 225.371 22.9998 225.679 23.1589L298.955 61.2283L299.613 61.5708C299.639 61.582 299.667 61.5916 299.694 61.5995C299.744 61.5904 299.794 61.5856 299.845 61.5851C299.913 61.562 299.971 61.5133 300.005 61.4492C300.023 61.4154 300.034 61.3783 300.037 61.3403C300.041 61.3022 300.037 61.2638 300.026 61.2272C300.014 61.1907 299.996 61.1567 299.972 61.1273C299.947 61.0978 299.918 61.0735 299.884 61.0557L299.793 61.0072L225.945 22.6406C225.512 22.4189 225.015 22.3597 224.542 22.4736C224.07 22.5876 223.653 22.8672 223.368 23.262L187.777 73.0616L174.36 91.8406C174.336 91.8735 174.319 91.9113 174.31 91.9514C174.302 91.9914 174.302 92.0329 174.311 92.0728Z" fill="#52515B"/>
<path d="M212.68 94.8332L215.524 95.1498L236.63 97.4958L250.621 99.05L251.448 99.1422L268.907 85.459L269.576 84.9348L273.699 81.7034L288.37 70.2068L288.458 69.3993L293.677 22.1425C293.748 21.4917 293.559 20.8393 293.151 20.3281C292.744 19.8169 292.151 19.4887 291.502 19.4155L221.861 11.6748C221.213 11.6037 220.563 11.7934 220.053 12.2023C219.544 12.6112 219.217 13.2059 219.144 13.8563L215.464 47.1903L213.422 65.6712L211.596 82.2047L210.75 89.8829L210.503 92.1069C210.432 92.7579 210.622 93.4104 211.03 93.9214C211.438 94.4324 212.031 94.7603 212.68 94.8332Z" fill="#EFEFEF"/>
<path d="M231.817 53.4108L261.984 56.7632L272.682 57.9517C273.154 58.0042 273.632 57.9629 274.088 57.83C274.545 57.6971 274.97 57.4753 275.341 57.1773C275.712 56.8793 276.021 56.511 276.25 56.0932C276.479 55.6754 276.624 55.2165 276.677 54.7426C276.729 54.2686 276.688 53.789 276.555 53.3311C276.423 52.8731 276.202 52.4459 275.905 52.0736C275.608 51.7014 275.241 51.3915 274.824 51.1617C274.408 50.9318 273.951 50.7865 273.478 50.734L260.172 49.2553L232.616 46.1895C231.662 46.0837 230.705 46.3624 229.956 46.9644C229.206 47.5663 228.726 48.4422 228.62 49.3995C228.514 50.3568 228.792 51.3171 229.391 52.0693C229.991 52.8215 230.863 53.304 231.817 53.4108Z" fill="white"/>
<path d="M230.1 66.8005C230.178 66.8145 230.255 66.8284 230.335 66.8361L265.353 70.7287L271.2 71.3799C272.154 71.4858 273.111 71.207 273.86 70.6048C274.61 70.0027 275.09 69.1265 275.196 68.1689C275.301 67.2114 275.023 66.251 274.423 65.4991C273.823 64.7471 272.95 64.2652 271.996 64.1593L263.541 63.2208L235.802 60.1367L231.134 59.6176C230.201 59.5131 229.263 59.777 228.52 60.3534C227.777 60.9299 227.286 61.7737 227.152 62.7066C227.017 63.6394 227.25 64.5881 227.8 65.3521C228.35 66.1161 229.175 66.6355 230.1 66.8005V66.8005Z" fill="white"/>
<path d="M226.136 78.6729C226.423 79.1509 226.816 79.5562 227.285 79.8571C227.753 80.1581 228.284 80.3466 228.837 80.4081L243.19 82.0032L268.753 84.8448L268.758 84.8434L269.576 84.9348L273.699 81.7033C273.725 81.4579 273.725 81.2104 273.7 80.9649C273.613 80.1406 273.248 79.3708 272.666 78.7828C272.084 78.1948 271.319 77.8239 270.498 77.7314L266.947 77.3355L252.861 75.7714L242.725 74.6435L229.633 73.1876C228.962 73.1131 228.284 73.2283 227.675 73.5204C227.065 73.8124 226.55 74.2696 226.186 74.8402C225.822 75.4108 225.625 76.0721 225.616 76.7494C225.607 77.4267 225.788 78.0929 226.136 78.6729L226.136 78.6729Z" fill="white"/>
<path d="M246.296 37.0439L253.802 37.8781L257.117 38.2475L262.125 38.8036C263.079 38.9095 264.036 38.6307 264.786 38.0285C265.535 37.4264 266.015 36.5501 266.121 35.5926C266.227 34.6351 265.949 33.6747 265.349 32.9228C264.748 32.1708 263.875 31.6889 262.921 31.583L247.096 29.8255C246.142 29.7191 245.185 29.9973 244.435 30.5989C243.686 31.2005 243.205 32.0763 243.099 33.0335C242.993 33.9908 243.27 34.9511 243.87 35.7031C244.469 36.4552 245.342 36.9375 246.296 37.0439V37.0439Z" fill="white"/>
<path d="M184.923 57.1498L194.073 95.0789L209.346 97.9928L223.474 100.692L238.632 103.586L243.475 104.51C243.759 104.564 244.051 104.557 244.331 104.489C244.611 104.421 244.874 104.293 245.102 104.115L248.988 101.07L251.448 99.1425L268.907 85.4593L257.806 39.4464C257.696 38.9886 257.457 38.5724 257.117 38.2476C256.819 37.9603 256.454 37.7529 256.055 37.6445C255.656 37.5361 255.236 37.5302 254.835 37.6274L186.735 54.1688C186.101 54.3232 185.554 54.7239 185.214 55.2829C184.874 55.8418 184.769 56.5133 184.923 57.1498Z" fill="#1BC3D4"/>
<path d="M205.905 87.3233C206.132 88.2589 206.719 89.0661 207.538 89.5676C208.357 90.0692 209.341 90.2241 210.274 89.9983L250.233 80.2922C251.166 80.0644 251.97 79.475 252.469 78.6532C252.969 77.8314 253.124 76.8443 252.899 75.9083C252.889 75.8619 252.876 75.8162 252.86 75.7713C252.605 74.869 252.012 74.1007 251.205 73.6275C250.397 73.1544 249.439 73.0131 248.53 73.2333L208.571 82.9394C207.639 83.1667 206.834 83.7561 206.335 84.578C205.835 85.3999 205.68 86.3873 205.905 87.3233Z" fill="white"/>
<path d="M209.346 97.9926L223.474 100.691L253.401 93.4221C254.334 93.1955 255.139 92.6063 255.639 91.7842C256.139 90.9621 256.293 89.9743 256.067 89.0382C255.841 88.1022 255.254 87.2945 254.435 86.7928C253.615 86.2911 252.631 86.1366 251.698 86.3632L211.739 96.0693C210.904 96.2705 210.168 96.7652 209.665 97.4637C209.544 97.6306 209.437 97.8076 209.346 97.9926Z" fill="white"/>
<path d="M238.632 103.585L243.475 104.51C243.759 104.564 244.051 104.556 244.331 104.488C244.611 104.42 244.874 104.293 245.102 104.115L248.987 101.07L238.632 103.585Z" fill="white"/>
<path d="M213.957 66.9853C214.183 67.9209 214.771 68.7281 215.59 69.2296C216.409 69.7311 217.393 69.886 218.326 69.6603L233.803 65.9009C234.735 65.6731 235.539 65.0836 236.039 64.2619C236.539 63.4401 236.693 62.453 236.469 61.517C236.348 61.0141 236.121 60.5432 235.802 60.1366C235.374 59.587 234.797 59.1727 234.141 58.9431C233.484 58.7136 232.776 58.6785 232.1 58.842L216.623 62.6014C215.69 62.8281 214.885 63.4173 214.385 64.2394C213.885 65.0615 213.731 66.0492 213.957 66.9852V66.9853Z" fill="white"/>
<path d="M223.473 100.691L238.633 103.586L243.475 104.511C243.759 104.564 244.05 104.556 244.33 104.488C244.61 104.42 244.873 104.293 245.101 104.116L248.989 101.07L247.625 101.402L244.744 103.657C244.582 103.783 244.394 103.874 244.194 103.922C243.994 103.971 243.785 103.977 243.583 103.939L239.998 103.254L224.837 100.36L223.473 100.691ZM268.757 84.8458L268.905 85.4576L269.577 84.933L268.757 84.8458ZM223.473 100.691L238.633 103.586L243.475 104.511C243.759 104.564 244.05 104.556 244.33 104.488C244.61 104.42 244.873 104.293 245.101 104.116L248.989 101.07L247.625 101.402L244.744 103.657C244.582 103.783 244.394 103.874 244.194 103.922C243.994 103.971 243.785 103.977 243.583 103.939L239.998 103.254L224.837 100.36L223.473 100.691ZM223.473 100.691L238.633 103.586L243.475 104.511C243.759 104.564 244.05 104.556 244.33 104.488C244.61 104.42 244.873 104.293 245.101 104.116L248.989 101.07L247.625 101.402L244.744 103.657C244.582 103.783 244.394 103.874 244.194 103.922C243.994 103.971 243.785 103.977 243.583 103.939L239.998 103.254L224.837 100.36L223.473 100.691ZM174.08 93.5917L191.187 164.499C191.314 165.023 191.643 165.475 192.102 165.756C192.56 166.036 193.112 166.123 193.634 165.997L317.45 135.922C317.972 135.795 318.422 135.464 318.702 135.004C318.982 134.544 319.069 133.991 318.943 133.467L301.836 62.5597C301.757 62.2287 301.596 61.9231 301.368 61.6712C301.14 61.4193 300.852 61.2293 300.531 61.1189C300.294 61.0353 300.044 60.9975 299.793 61.0074C299.501 61.0159 299.214 61.0916 298.955 61.2286C298.836 61.2855 298.723 61.3557 298.619 61.4379L288.458 69.3996L273.7 80.9667L268.756 84.8416L268.757 84.8458L268.753 84.8468L250.622 99.0482L247.625 101.402L244.744 103.657C244.582 103.783 244.394 103.874 244.194 103.922C243.994 103.971 243.785 103.977 243.583 103.939L239.998 103.254L224.837 100.36L209.664 97.4639L176.429 91.1179C176.146 91.0616 175.854 91.0679 175.573 91.1365C175.195 91.2292 174.852 91.4288 174.584 91.7117C174.481 91.8227 174.39 91.9438 174.311 92.0731C174.038 92.5291 173.955 93.0747 174.08 93.5917ZM223.473 100.691L238.633 103.586L243.475 104.511C243.759 104.564 244.05 104.556 244.33 104.488C244.61 104.42 244.873 104.293 245.101 104.116L248.989 101.07L247.625 101.402L244.744 103.657C244.582 103.783 244.394 103.874 244.194 103.922C243.994 103.971 243.785 103.977 243.583 103.939L239.998 103.254L224.837 100.36L223.473 100.691ZM223.473 100.691L238.633 103.586L243.475 104.511C243.759 104.564 244.05 104.556 244.33 104.488C244.61 104.42 244.873 104.293 245.101 104.116L248.989 101.07L247.625 101.402L244.744 103.657C244.582 103.783 244.394 103.874 244.194 103.922C243.994 103.971 243.785 103.977 243.583 103.939L239.998 103.254L224.837 100.36L223.473 100.691ZM223.473 100.691L238.633 103.586L243.475 104.511C243.759 104.564 244.05 104.556 244.33 104.488C244.61 104.42 244.873 104.293 245.101 104.116L248.989 101.07L247.625 101.402L244.744 103.657C244.582 103.783 244.394 103.874 244.194 103.922C243.994 103.971 243.785 103.977 243.583 103.939L239.998 103.254L224.837 100.36L223.473 100.691Z" fill="white"/>
<path d="M223.473 100.691L238.633 103.586L243.475 104.511C243.759 104.564 244.05 104.556 244.33 104.488C244.61 104.42 244.873 104.293 245.101 104.116L248.989 101.07L247.625 101.402L244.744 103.657C244.582 103.783 244.394 103.874 244.194 103.922C243.994 103.971 243.785 103.977 243.583 103.939L239.998 103.254L224.837 100.36L223.473 100.691ZM268.757 84.8458L268.905 85.4576L269.577 84.933L268.757 84.8458ZM223.473 100.691L238.633 103.586L243.475 104.511C243.759 104.564 244.05 104.556 244.33 104.488C244.61 104.42 244.873 104.293 245.101 104.116L248.989 101.07L247.625 101.402L244.744 103.657C244.582 103.783 244.394 103.874 244.194 103.922C243.994 103.971 243.785 103.977 243.583 103.939L239.998 103.254L224.837 100.36L223.473 100.691ZM223.473 100.691L238.633 103.586L243.475 104.511C243.759 104.564 244.05 104.556 244.33 104.488C244.61 104.42 244.873 104.293 245.101 104.116L248.989 101.07L247.625 101.402L244.744 103.657C244.582 103.783 244.394 103.874 244.194 103.922C243.994 103.971 243.785 103.977 243.583 103.939L239.998 103.254L224.837 100.36L223.473 100.691ZM174.875 92.1168L174.95 92.1734C174.962 92.1527 174.984 92.1342 175.001 92.1125C175.169 91.9374 175.377 91.8068 175.607 91.7324C175.838 91.658 176.083 91.6421 176.321 91.6862L209.347 97.9902L223.473 100.691L238.633 103.586L243.475 104.511C243.759 104.564 244.05 104.556 244.33 104.488C244.61 104.42 244.873 104.293 245.101 104.116L248.989 101.07L247.625 101.402L244.744 103.657C244.582 103.783 244.394 103.874 244.194 103.922C243.994 103.971 243.785 103.977 243.583 103.939L239.998 103.254L224.837 100.36L209.664 97.4639L176.429 91.1179C176.146 91.0616 175.854 91.0679 175.573 91.1365L174.875 92.1168ZM174.08 93.5917L191.187 164.499C191.314 165.023 191.643 165.475 192.102 165.756C192.56 166.036 193.112 166.123 193.634 165.997L317.45 135.922C317.972 135.795 318.422 135.464 318.702 135.004C318.982 134.544 319.069 133.991 318.943 133.467L301.836 62.5597C301.757 62.2287 301.596 61.9231 301.368 61.6712C301.14 61.4193 300.852 61.2293 300.531 61.1189C300.294 61.0353 300.044 60.9975 299.793 61.0074C299.501 61.0159 299.214 61.0916 298.955 61.2286C298.836 61.2855 298.723 61.3557 298.619 61.4379L288.458 69.3996L273.7 80.9667L268.756 84.8416L268.757 84.8458L268.753 84.8468L250.622 99.0482L247.625 101.402L244.744 103.657C244.582 103.783 244.394 103.874 244.194 103.922C243.994 103.971 243.785 103.977 243.583 103.939L239.998 103.254L224.837 100.36L209.664 97.4639L176.429 91.1179C176.146 91.0616 175.854 91.0679 175.573 91.1365C175.195 91.2291 174.852 91.4288 174.584 91.7116C174.481 91.8227 174.39 91.9438 174.311 92.073C174.038 92.5291 173.955 93.0747 174.08 93.5917ZM174.644 93.4547C174.594 93.2457 174.59 93.028 174.635 92.8175C174.679 92.6071 174.769 92.4092 174.9 92.2384C174.911 92.2133 174.928 92.1911 174.95 92.1734C174.962 92.1527 174.984 92.1342 175.001 92.1125C175.169 91.9374 175.377 91.8068 175.607 91.7324C175.838 91.658 176.083 91.6422 176.321 91.6862L209.347 97.9902L223.473 100.691L238.633 103.586L243.475 104.511C243.759 104.564 244.05 104.556 244.33 104.488C244.61 104.42 244.873 104.293 245.101 104.116L248.989 101.07L251.448 99.1427L268.905 85.4575L269.577 84.933L273.697 81.703L288.371 70.2048L298.979 61.8923C299.14 61.7661 299.327 61.6758 299.525 61.6275C299.581 61.6138 299.637 61.6045 299.694 61.5997C299.744 61.5906 299.794 61.5858 299.844 61.5852C300.014 61.5836 300.183 61.6112 300.343 61.6668C300.572 61.7467 300.777 61.8827 300.94 62.0624C301.103 62.2421 301.218 62.4598 301.276 62.6957L318.383 133.603C318.428 133.789 318.436 133.981 318.407 134.17C318.377 134.359 318.311 134.541 318.212 134.704C318.113 134.867 317.982 135.009 317.828 135.122C317.674 135.234 317.499 135.315 317.314 135.36L193.498 165.435C193.125 165.525 192.731 165.463 192.403 165.261C192.076 165.06 191.841 164.736 191.751 164.362L174.644 93.4547ZM223.473 100.691L238.633 103.586L243.475 104.511C243.759 104.564 244.05 104.556 244.33 104.488C244.61 104.42 244.873 104.293 245.101 104.116L248.989 101.07L247.625 101.402L244.744 103.657C244.582 103.783 244.394 103.874 244.194 103.922C243.994 103.971 243.785 103.977 243.583 103.939L239.998 103.254L224.837 100.36L223.473 100.691ZM223.473 100.691L238.633 103.586L243.475 104.511C243.759 104.564 244.05 104.556 244.33 104.488C244.61 104.42 244.873 104.293 245.101 104.116L248.989 101.07L247.625 101.402L244.744 103.657C244.582 103.783 244.394 103.874 244.194 103.922C243.994 103.971 243.785 103.977 243.583 103.939L239.998 103.254L224.837 100.36L223.473 100.691ZM223.473 100.691L238.633 103.586L243.475 104.511C243.759 104.564 244.05 104.556 244.33 104.488C244.61 104.42 244.873 104.293 245.101 104.116L248.989 101.07L247.625 101.402L244.744 103.657C244.582 103.783 244.394 103.874 244.194 103.922C243.994 103.971 243.785 103.977 243.583 103.939L239.998 103.254L224.837 100.36L223.473 100.691Z" fill="#52515B"/>
<path d="M285.18 121.991C284.901 120.829 285.092 119.604 285.713 118.583C286.333 117.563 287.332 116.832 288.489 116.549L304.116 112.753C305.272 112.477 306.491 112.671 307.505 113.294C308.518 113.917 309.245 114.918 309.524 116.078C309.804 117.237 309.614 118.46 308.997 119.48C308.379 120.499 307.385 121.231 306.23 121.516L290.603 125.312C289.445 125.591 288.224 125.399 287.207 124.777C286.19 124.154 285.461 123.152 285.18 121.991Z" fill="#1BC3D4"/>
<path d="M112.481 108.823C114.62 108.823 116.355 107.083 116.355 104.936C116.355 102.79 114.62 101.05 112.481 101.05C110.342 101.05 108.608 102.79 108.608 104.936C108.608 107.083 110.342 108.823 112.481 108.823Z" fill="white"/>
</g>
<defs>
<clipPath id="clip0_46_501">
<rect width="319" height="274" fill="white"/>
</clipPath>
</defs>
</svg>
